<?xml version="1.0" encoding="UTF-8" standalone="no"?>
<svg
   xmlns:dc="http://purl.org/dc/elements/1.1/"
   xmlns:cc="http://creativecommons.org/ns#"
   xmlns:rdf="http://www.w3.org/1999/02/22-rdf-syntax-ns#"
   xmlns:svg="http://www.w3.org/2000/svg"
   xmlns="http://www.w3.org/2000/svg"
   xmlns:sodipodi="http://sodipodi.sourceforge.net/DTD/sodipodi-0.dtd"
   xmlns:inkscape="http://www.inkscape.org/namespaces/inkscape"
   width="258"
   height="925"
   viewBox="0 0 1290 4625"
   version="1.0"
   id="svg6"
   sodipodi:docname="silhouette-f.svg"
   inkscape:version="0.92.1 r15371">
  <defs
     id="defs10" />
  <sodipodi:namedview
     pagecolor="#ffffff"
     bordercolor="#666666"
     borderopacity="1"
     objecttolerance="10"
     gridtolerance="10"
     guidetolerance="10"
     inkscape:pageopacity="0"
     inkscape:pageshadow="2"
     inkscape:window-width="692"
     inkscape:window-height="746"
     id="namedview8"
     showgrid="false"
     inkscape:zoom="1"
     inkscape:cx="122.49286"
     inkscape:cy="534.36397"
     inkscape:window-x="0"
     inkscape:window-y="0"
     inkscape:window-maximized="0"
     inkscape:current-layer="svg6" />
  <metadata
     id="metadata2">
    <rdf:RDF>
      <cc:Work
         rdf:about="">
        <dc:format>image/svg+xml</dc:format>
        <dc:type
           rdf:resource="http://purl.org/dc/dcmitype/StillImage" />
      </cc:Work>
    </rdf:RDF>
  </metadata>
  <path
     d="M -385.44387,1451.6277 C -380.61855,1493.168 -375.79324,1534.9048 -370.96792,1587.7406 C -366.50418,1632.6398 -366.68605,1668.3857 -368.03609,1701.8299 C -389.92292,1798.3141 -375.44736,1870.9723 -362.90537,1937.9513 C -347.14207,2002.6241 -330.4187,2065.7685 -322.5926,2122.8048 C -321.7364,2137.73 -320.81473,2152.7842 -321.85966,2163.9635 C -326.31879,2179.0821 -321.47621,2193.3541 -318.19487,2206.5664 C -315.84948,2212.7187 -320.30564,2219.6738 -327.72332,2229.673 C -335.1897,2245.1483 -350.83695,2255.2504 -363.63833,2267.2214 C -365.77404,2273.7201 -365.62465,2280.219 -359.97354,2286.7177 L -355.57578,2291.4112 L -248.56372,2293.9386 C -243.45574,2289.5997 -240.04835,2282.5385 -242.70004,2265.7773 L -246.36485,2244.8368 C -237.88126,2228.8897 -237.09342,2211.426 -238.30231,2193.569 C -241.14919,2170.0542 -245.04112,2148.5986 -253.69444,2136.5243 C -262.1952,2121.5869 -260.5829,2069.1625 -260.29107,2033.2662 C -250.76241,1956.0035 -242.29176,1877.6985 -250.02963,1783.4253 C -252.37765,1761.3794 -253.49872,1738.5276 -250.02963,1712.6611 C -230.80178,1658.8846 -233.76418,1614.8241 -230.97269,1568.2443 L -226.20847,1452.7109 L -225.84144,1457.4235 C -218.14211,1395.3736 -217.57608,1330.7845 -215.58013,1257.3279 C -215.36624,1241.9762 -211.81915,1193.0916 -223.85727,1193.1204 C -217.15463,1189.9446 -208.96066,1180.6901 -201.8373,1173.2218 C -197.27352,1174.3149 -189.72154,1174.8413 -183.33028,1174.138 C -190.06144,1203.9641 -200.69062,1232.231 -193.5916,1267.5892 C -195.22296,1331.6239 -182.91885,1393.1442 -180.39848,1457.4235 L -179.66554,1454.155 L -166.47228,1701.1078 V 1792.0904 L -165.00635,1914.8446 L -157.67676,2086.7005 L -168.67114,2137.2463 L -181.86443,2187.7923 L -173.80185,2230.395 L -178.93257,2258.5564 L -173.80185,2289.6063 L -63.125006,2287.4397 C -55.418884,2273.212,-57.414894,2263.1655,-65.323882,2255.668 C -74.363708,2248.1916,-83.403554,2241.7286,-92.44338,2229.673 C -105.18512,2210.9556,-101.75722,2206.6856,-103.43776,2200.7897 C -103.73394,2197.1968,-98.052644,2191.7138,-96.841132,2186.3479 C -95.947721,2179.7596,-93.448784,2179.4979,-99.040008,2147.3556 C -100.4846,2138.5963,-99.778679,2128.4247,-98.307063,2117.7502 C -88.413106,2069.9725,-78.721749,2022.2615,-63.125006,1972.6113 C -45.066964,1893.6056,-28.796731,1814.4962,-43.335122,1733.6015 C -45.334702,1700.9114,-48.401747,1669.273,-44.801012,1631.0656 C -42.668506,1597.1931,-40.491835,1563.277,-34.539597,1525.6414 C -25.89397,1468.8374,-16.019242,1412.0335,-1.5564156,1355.2295 C 11.054265,1304.1023,24.591049,1254.4349,27.761959,1188.4281 L 27.454694,1189.641 C 31.700415,1142.3111 19.830067,1009.9499 13.441128,964.70982 C 2.9483004,919.92769 -16.319016,885.89972 -39.24014,849.65287 C -51.109297,827.43805 -56.046158,802.07217 -52.715274,772.94825 C -45.549143,728.37664 -37.462244,688.93568 -37.062854,638.50047 L -36.713805,648.29467 C -35.004168,677.40154,-33.29451,694.15847,-31.584873,706.91268 C -27.761857,725.33968,-26.376929,745.04994,-26.455961,765.53074 C -25.33715,827.15071,-16.919241,858.03675,-8.138411,887.39455 C 7.8365431,935.68006,12.909879,969.21107,54.141268,1051.6793 C 65.021419,1082.0772,60.177279,1087.9786,58.537481,1092.5577 C 56.319642,1096.947,54.856809,1105.1124,53.408569,1111.0687 C 52.137685,1117.9475,49.903017,1130.3982,50.477774,1158.8886 C 50.285128,1172.451,48.222748,1171.2327,46.264726,1181.256 C 45.540195,1190.8514,43.183479,1199.1556,43.883445,1208.2512 C 43.53848,1222.9623,60.737095,1230.8031,62.933714,1214.4215 C 64.733302,1203.2851,67.983942,1192.9125,71.726119,1182.7986 C 73.435756,1188.1393,75.145414,1190.3061,76.855051,1190.5115 C 74.918372,1199.4665,72.998645,1208.463,73.924236,1224.4483 C 70.046958,1242.8628,65.09056,1260.7905,57.804802,1277.6673 C 54.485473,1294.2471,71.993939,1303.3119,77.58775,1286.9228 C 80.523614,1275.7203,81.420986,1264.6712,90.776388,1252.986 C 97.565683,1241.5489,104.65557,1231.1875,109.09394,1211.3363 C 110.36926,1205.6282,109.45686,1203.969,115.68827,1191.2828 C 118.35748,1187.6872,120.42739,1179.9881,114.95557,1143.4628 C 113.63198,1129.8119,112.11854,1115.1618,109.82664,1096.4141 C 102.32127,1045.2288,99.821858,992.28691,98.103417,939.07097 C 95.5299,882.97785,90.906563,826.16551,70.99342,763.98815 C 63.875148,736.7236,60.299635,695.28758,62.933714,629.01239 C 64.567684,576.54875,71.563354,525.21393,64.399091,470.89795 L 63.896492,471.83074 C 59.016807,459.34921,42.270695,399.26564,-43.904604,377.50478 C -51.554781,371.39715,-58.196621,368.20383,-66.541079,362.73262 L -67.070645,363.06931 C -62.137231,344.89421 -82.04547,325.88683 -79.350541,293.6463 C -69.702609,273.39222 -72.836106,240.63257 -78.12101,210.19081 C -73.06085,175.888 -59.649294,119.84264 -93.667822,75.184731 C -91.52922,46.590497 -112.54119,9.255003 -143.9359,10.737401 C -171.31609,-16.910848 -199.50814,-33.534848 -230.9981,-5.3744305 C -259.17687,1.5701689 -278.74113,24.79207 -284.3755,46.294549 C -312.3645,60.85132 -311.2815,100.49825 -308.82063,127.5365 L -302.7202,152.37489 C -318.14453,146.89543 -319.23664,160.15901 -311.96057,183.09737 C -306.49743,197.79703 -308.32815,223.02436 -288.39132,222.59117 C -286.27413,237.40666 -281.81084,255.15352 -272.70528,269.96898 C -268.78947,298.73643 -274.17975,314.46322 -274.01095,335.19639 L -274.21097,335.54174 C -301.88675,352.22356 -347.70679,375.15605 -390.88939,387.35201 C -393.82622,388.04303 -394.12279,389.9597 -397.62697,391.23906 C -422.51385,395.23539 -444.83522,412.41668 -455.93283,432.96014 C -474.5904,459.91051 -471.93159,487.62044 -471.48108,520.03026 C -474.81219,557.56598 -474.91807,584.60367 -474.13823,608.56256 C -473.35839,632.52147 -471.69283,653.40162 -471.48108,678.62229 C -471.4298,684.73013 -472.30876,698.46065 -472.62007,704.26793 L -472.79859,705.07747 C -474.37278,717.21668 -477.78965,745.97641 -481.95115,755.14214 C -501.83969,823.86851 -506.0607,902.73455 -506.80511,983.85061 L -508.48795,1044.5463 C -513.96059,1059.5766 -512.58246,1062.0323 -509.13517,1084.5703 C -509.53877,1089.6483 -514.00076,1119.5467 -521.30326,1166.8174 C -522.90047,1178.8641 -521.29897,1189.0994 -520.26767,1199.6576 C -517.89728,1229.2918 -510.45611,1246.0043 -502.66281,1261.8194 C -492.99735,1277.0666 -483.33193,1286.8405 -473.66649,1291.141 C -466.65129,1299.6019 -463.12913,1295.2057 -461.62786,1283.3707 C -464.55615,1268.7588 -467.42446,1254.1469 -475.73766,1239.535 C -477.46363,1227.8399 -479.1896,1216.3722 -480.91558,1203.1762 C -482.3434,1193.1239 -482.57721,1183.5224 -479.87999,1175.0274 C -475.00617,1172.3093 -469.9622,1168.0494 -466.41743,1177.3732 C -467.89892,1191.9647 -469.29901,1206.5333 -465.38184,1219.5963 C -458.22049,1235.1867 -453.23511,1235.2363 -448.81253,1219.5963 C -445.31708,1199.1944 -442.32371,1177.3708 -441.56347,1149.2244 C -439.88841,1127.7508 -441.55265,1108.1681 -450.88369,1092.9269 C -463.69968,1078.5595 -458.65719,1061.0803 -453.99043,1043.6667 C -434.21358,981.50488 -415.43626,919.34308 -397.03344,857.18129 C -383.52965,811.09533 -377.70775,709.60775 -377.87035,648.04372 L -378.63768,647.19055 C -373.6826,657.01129,-375.58446,652.15231,-365.83504,663.63771 C -364.10392,688.42555,-354.53559,790.77791,-342.87922,817.92387 C -342.46491,818.88872,-343.16064,820.69534,-343.29681,821.13053 C -359.67717,862.10175,-376.01336,902.03572,-386.72414,939.22723 C -413.68734,1016.399,-416.231,1040.3878,-424.47112,1072.6243 C -430.87471,1143.5047,-434.71646,1212.9619,-423.73817,1274.1858 C -414.17785,1335.8705,-398.07931,1399.153,-385.62472,1455.9576 Z"
     transform="translate(1049.58356,47.82) scale(1.9931279,1.9931279)"
     style="fill:#e2baa2;fill-opacity:0.3764706;fill-rule:evenodd;stroke:#000000;stroke-width:0.31357747;stroke-linecap:round;stroke-linejoin:round;stroke-miterlimit:4;stroke-dasharray:none;stroke-dashoffset:0;stroke-opacity:1"
     id="path4" />
</svg>
