<?xml version="1.0" encoding="UTF-8" standalone="no"?>
<svg
   xmlns:dc="http://purl.org/dc/elements/1.1/"
   xmlns:cc="http://creativecommons.org/ns#"
   xmlns:rdf="http://www.w3.org/1999/02/22-rdf-syntax-ns#"
   xmlns:svg="http://www.w3.org/2000/svg"
   xmlns="http://www.w3.org/2000/svg"
   xmlns:sodipodi="http://sodipodi.sourceforge.net/DTD/sodipodi-0.dtd"
   xmlns:inkscape="http://www.inkscape.org/namespaces/inkscape"
   width="509.95087"
   height="922.50031"
   viewBox="0 0 2549.7543 4612.5015"
   version="1.0"
   id="svg6"
   sodipodi:docname="silhouette-f2.svg"
   inkscape:version="0.92.1 r15371">
  <defs
     id="defs10">
    <inkscape:path-effect
       only_selected="false"
       apply_with_weight="true"
       apply_no_weight="true"
       helper_size="0"
       steps="2"
       weight="33.333333"
       is_visible="true"
       id="path-effect4568"
       effect="bspline" />
    <inkscape:path-effect
       effect="bspline"
       id="path-effect4555"
       is_visible="true"
       weight="33.333333"
       steps="2"
       helper_size="0"
       apply_no_weight="true"
       apply_with_weight="true"
       only_selected="false" />
  </defs>
  <sodipodi:namedview
     pagecolor="#ffffff"
     bordercolor="#666666"
     borderopacity="1"
     objecttolerance="10"
     gridtolerance="10"
     guidetolerance="10"
     inkscape:pageopacity="0"
     inkscape:pageshadow="2"
     inkscape:window-width="1362"
     inkscape:window-height="745"
     id="namedview8"
     showgrid="false"
     inkscape:zoom="0.71"
     inkscape:cx="148.49691"
     inkscape:cy="620.73701"
     inkscape:window-x="0"
     inkscape:window-y="0"
     inkscape:window-maximized="0"
     inkscape:current-layer="svg6"
     showguides="true"
     inkscape:guide-bbox="true">
    <sodipodi:guide
       position="-178.07832,2375.5272"
       orientation="0,1"
       id="guide4549"
       inkscape:locked="false" />
    <sodipodi:guide
       position="-220.33184,3938.9075"
       orientation="0,1"
       id="guide4583"
       inkscape:locked="false" />
  </sodipodi:namedview>
  <metadata
     id="metadata2">
    <rdf:RDF>
      <cc:Work
         rdf:about="">
        <dc:format>image/svg+xml</dc:format>
        <dc:type
           rdf:resource="http://purl.org/dc/dcmitype/StillImage" />
        <dc:title />
      </cc:Work>
    </rdf:RDF>
  </metadata>
  <path
     d="m 927.21001,2933.3555 c 9.61748,82.7952 19.23494,165.982 28.85242,271.2905 8.89681,89.4898 8.53431,160.736 5.84351,227.3945 -43.62325,192.3054 -14.77161,337.1225 10.22618,470.6202 31.41828,128.9011 64.75008,254.756 80.34848,368.4367 1.7065,29.7478 3.5436,59.7527 1.4609,82.0345 -8.8876,30.1333 0.7642,58.5792 7.3044,84.913 4.6746,12.2624 -4.2071,26.1248 -18.9915,46.0544 -14.8814,30.8443 -46.06837,50.9791 -71.58316,74.8388 -4.25674,12.9527 -3.95899,25.9059 7.3044,38.8586 l 8.76529,9.3548 213.28877,5.0374 c 10.1808,-8.648 16.9722,-22.7219 11.687,-56.1291 l -7.3044,-41.7371 c 16.9089,-31.7846 18.4791,-66.592 16.0697,-102.1832 -5.6742,-46.868 -13.4314,-89.6318 -30.6785,-113.6974 -16.9431,-29.7722 -13.7296,-134.2607 -13.148,-205.8066 18.9919,-153.9945 35.875,-310.0664 20.4524,-497.9649 -4.6799,-43.9403 -6.9143,-89.4869 0,-141.0421 38.3236,-107.1834 32.4191,-195.0017 37.9829,-287.8412 l 9.4957,-230.2728 0.7316,9.3928 c 15.3457,-123.6734 16.4739,-252.4077 20.4521,-398.8161 0.4263,-30.5979 7.4961,-128.0312 -16.4974,-127.9738 13.3592,-6.3297 29.6908,-24.7751 43.8886,-39.6604 9.0962,2.1787 24.1482,3.2279 36.8868,1.8261 -13.416,59.4472 -34.6013,115.7868 -20.4521,186.2602 -3.2515,127.6293 21.2722,250.2472 26.2956,378.364 l 1.4608,-6.5145 26.2959,492.2085 v 181.34 l 2.9218,244.6648 14.6088,342.5308 -21.9132,100.7442 -26.2959,100.7447 16.0697,84.9126 -10.2262,56.1293 10.2262,61.8864 220.5931,-4.3183 c 15.3593,-28.3577 11.381,-48.3816 -4.3826,-63.3251 -18.0175,-14.9014 -36.0351,-27.783 -54.0526,-51.8114 -25.396,-37.3061 -18.5637,-45.8168 -21.9132,-57.5681 -0.5904,-7.1611 10.7332,-18.0894 13.1479,-28.7843 1.7807,-13.1313 6.7614,-13.6529 -4.3827,-77.7167 -2.8792,-17.4584 -1.4722,-37.7317 1.4609,-59.0073 19.7199,-95.2271 39.036,-190.3212 70.1223,-289.2804 35.992,-157.4685 68.4207,-315.1436 39.4438,-476.3771 -3.9854,-65.1556 -10.0984,-128.2149 -2.9217,-204.3672 4.2504,-67.5122 8.5887,-135.1113 20.4523,-210.1239 17.2318,-113.2176 36.9134,-226.4351 65.7397,-339.6527 25.1347,-101.903 52.1152,-200.8965 58.4353,-332.4565 l -0.6124,2.4174 c 8.4622,-94.3345 -15.1969,-358.1473 -27.9309,-448.3166 -20.9135,-89.2565 -59.3157,-157.0786 -105.0005,-229.3232 -23.6567,-44.277 -33.4965,-94.8344 -26.8576,-152.8821 14.283,-88.8369 30.4012,-167.4478 31.1972,-267.9716 l 0.6957,19.5211 c 3.4076,58.0137 6.8151,91.4124 10.2227,116.8332 7.6197,36.7273 10.38,76.0124 10.2225,116.8333 2.23,122.8164 19.0079,184.3763 36.5092,242.8901 31.8402,96.2392 41.952,163.0708 124.1314,327.4405 21.6855,60.5869 12.0306,72.3492 8.7622,81.4759 -4.4204,8.7485 -7.336,25.0231 -10.2225,36.8948 -2.5331,13.7103 -6.9871,38.5262 -5.8415,95.3112 -0.384,27.0316 -4.4946,24.6034 -8.3971,44.5811 -1.4441,19.1248 -6.1414,35.6762 -4.7462,53.8049 -0.6876,29.3211 33.5914,44.9488 37.9696,12.2982 3.5868,-22.1963 10.0657,-42.8702 17.5244,-63.0285 3.4075,10.6447 6.8151,14.9634 10.2226,15.3728 -3.8601,17.8484 -7.6863,35.7796 -5.8415,67.6403 -7.7279,36.7025 -17.6066,72.4347 -32.1281,106.0723 -6.6158,33.0457 28.2808,51.113 39.43,18.4474 5.8515,-22.328 7.6401,-44.3503 26.2866,-67.6404 13.5319,-22.7956 27.663,-43.4472 36.5092,-83.0131 2.5419,-11.377 0.7234,-14.684 13.1434,-39.9692 5.32,-7.1665 9.4456,-22.5118 -1.4604,-95.3114 -2.6381,-27.208 -5.6546,-56.4075 -10.2226,-93.7741 -14.9592,-102.0188 -19.9408,-207.5388 -23.3659,-313.605 -5.1293,-111.8007 -14.3443,-225.035 -54.0337,-348.9624 -14.1876,-54.3418 -21.3141,-136.929 -16.064,-269.024 3.2567,-104.5667 17.2,-206.8836 2.9207,-315.14228 l -1.0018,1.85917 c -9.7258,-24.87728 -43.103,-144.63152 -214.8613,-188.0037 -15.2478,-12.17329 -28.4859,-18.53798 -45.1174,-29.4428 l -1.0555,0.67106 c 9.8329,-36.2253 -29.8468,-74.10944 -24.4754,-138.36894 19.2295,-40.36897 12.9841,-105.66314 2.4506,-166.33746 10.0855,-68.36989 36.8165,-180.07546 -30.9868,-269.08438 4.2625,-56.99197 -37.617,-131.406385 -100.1907,-128.451776 -54.5722,-55.1064967 -110.7626,-88.240255 -173.5261,-32.112941 -56.1639,13.841475 -95.158,60.125694 -106.388,102.982887 -55.7857,29.0135 -53.6271,108.03491 -48.7223,161.9256 l 12.159,49.50608 c -30.7427,-10.92126 -32.9194,15.51475 -18.4173,61.23384 10.8888,29.2983 7.2399,79.57959 46.9766,78.71619 4.2198,29.52917 13.1157,64.90093 31.2642,94.43004 7.8047,57.3372 -2.9388,88.68271 -2.6023,130.00657 l -0.3987,0.68832 c -55.1614,33.249 -146.4866,78.95639 -232.55501,103.2645 -5.85348,1.37729 -6.44458,5.19746 -13.42886,7.74739 -49.60273,7.96519 -94.09208,42.2097 -116.21103,83.15544 -37.18693,53.71554 -31.88758,108.94499 -30.98965,173.54189 -6.63933,74.8135 -6.85036,128.7031 -5.29604,176.4562 1.55432,47.7532 4.87399,89.37 5.29604,139.638 0.10224,12.1737 -1.64968,39.5404 -2.27016,51.115 l -0.35581,1.6136 c -3.13756,24.195 -9.94782,81.5168 -18.24222,99.7852 -39.64041,136.9805 -48.05342,294.1706 -49.53712,455.8453 l -3.35412,120.9743 c -10.90767,29.9573 -8.16088,34.8518 -1.28999,79.7729 -0.80443,10.1211 -9.69774,69.7124 -24.25256,163.929 -3.18344,24.0106 0.008,44.4109 2.06406,65.4547 4.72449,59.0648 19.5557,92.3749 35.08874,123.8964 19.2645,30.3897 38.52892,49.8703 57.79338,58.4417 13.98219,16.8637 21.0023,8.1015 23.99452,-15.4872 -5.83645,-29.1234 -11.55336,-58.2467 -28.12263,-87.3701 -3.44008,-23.3099 -6.88016,-46.1665 -10.32026,-72.4678 -2.84583,-20.0355 -3.31184,-39.1725 2.06406,-56.1041 9.71415,-5.4175 19.76743,-13.9081 26.83261,4.6755 -2.9528,29.0827 -5.74336,58.1198 2.06406,84.156 14.27349,31.0737 24.20999,31.1725 33.02476,0 6.96688,-40.6636 12.93304,-84.1608 14.4483,-140.2602 3.33861,-42.7996 0.0215,-81.8305 -18.57639,-112.2081 -25.54391,-28.6361 -15.49358,-63.4744 -6.19213,-98.1819 39.41779,-123.8965 76.84339,-247.7929 113.52257,-371.6893 26.91478,-91.8552 38.51857,-294.1329 38.19448,-416.8379 l -1.52938,-1.7005 c 9.87611,19.574 6.08546,9.8894 25.5173,32.7813 3.45034,49.4054 22.52125,253.4067 45.75388,307.5121 0.8258,1.923 -0.5609,5.5239 -0.8323,6.3912 -32.64816,81.6609 -65.20828,161.2544 -86.55623,235.3819 -53.74111,153.8132 -58.81095,201.6259 -75.23456,265.8774 -12.76317,141.2737 -20.42027,279.7108 1.46086,401.7378 19.05494,122.9455 51.14139,249.0757 75.96498,362.2945 z"
     style="fill:#e2baa2;fill-opacity:0.37647059;fill-rule:evenodd;stroke:#000000;stroke-width:0.625;stroke-linecap:round;stroke-linejoin:round;stroke-miterlimit:4;stroke-dasharray:none;stroke-dashoffset:0;stroke-opacity:1"
     id="path4"
     inkscape:connector-curvature="0" />
  <path
     style="opacity:1;fill:#e2baa2;fill-opacity:0.37647059;fill-rule:evenodd;stroke:#e2baa2;stroke-width:6.48079157px;stroke-linecap:butt;stroke-linejoin:miter;stroke-opacity:0.37647059;image-rendering:auto"
     d="m 137.55323,1314.4389 c 8.1e-4,-72.6724 -35.81566,31.5645 -69.395483,187.9275 -33.579822,156.363 -64.9169583,364.8217 -64.9173509,573.2998 -3.926e-4,208.478 31.3379319,416.9446 64.9161099,573.3021 33.578174,156.3575 69.393664,260.5915 69.290034,187.1948 -0.10363,-73.3968 -35.71234,-321.5303 -53.620182,-509.4494 -17.907846,-187.919 -17.907846,-314.1804 -6e-6,-502.0946 17.907838,-187.9141 53.726068,-437.5077 53.726878,-510.1802 z"
     id="path4553"
     inkscape:connector-curvature="0"
     inkscape:path-effect="#path-effect4555"
     inkscape:original-d="m 173.36784,1137.5374 c -35.80973,104.2305 -71.62617,208.4674 -107.449328,312.7104 -31.33492,208.4825 -62.6720603,416.9412 -94.01816,625.421 31.3471597,208.4743 62.6855,416.9409 94.01816,625.421 35.824058,104.2333 71.639598,208.4673 107.449328,312.7104 -35.81106,-251.0646 -71.62617,-499.1685 -107.449328,-748.7433 0.007,-126.2622 0.007,-252.5236 0,-378.7761 35.821388,-249.575 71.639598,-499.1686 107.449328,-748.7434 z" />
  <path
     inkscape:original-d="m 2376.3864,1137.5374 c 35.8098,104.2305 71.6262,208.4673 107.4494,312.7104 31.3349,208.4824 62.672,416.9411 94.0181,625.4209 -31.3471,208.4743 -62.6855,416.9409 -94.0181,625.421 -35.8241,104.2333 -71.6396,208.4673 -107.4494,312.7104 35.8111,-251.0646 71.6262,-499.1685 107.4494,-748.7433 -0.01,-126.2622 -0.01,-252.5236 0,-378.7761 -35.8214,-249.575 -71.6396,-499.1685 -107.4494,-748.7433 z"
     inkscape:path-effect="#path-effect4568"
     inkscape:connector-curvature="0"
     id="path4566"
     d="m 2412.201,1314.439 c -8e-4,-72.6725 35.8157,31.5643 69.3955,187.9273 33.5799,156.363 64.917,364.8217 64.9174,573.2998 4e-4,208.478 -31.3379,416.9446 -64.9161,573.3021 -33.5782,156.3575 -69.3937,260.5915 -69.2901,187.1948 0.1037,-73.3968 35.7124,-321.5303 53.6202,-509.4494 17.9079,-187.919 17.9079,-314.1804 0,-502.0946 -17.9078,-187.9141 -53.7261,-437.5076 -53.7269,-510.18 z"
     style="fill:#e2baa2;fill-opacity:0.37647059;fill-rule:evenodd;stroke:#e2baa2;stroke-width:6.48079157px;stroke-linecap:butt;stroke-linejoin:miter;stroke-opacity:0.37647059" />
</svg>
