<?xml version="1.0" standalone="no"?>
<!DOCTYPE svg PUBLIC "-//W3C//DTD SVG 1.1//EN" "http://www.w3.org/Graphics/SVG/1.1/DTD/svg11.dtd" >
<!--
2019-2-6: Created with FontForge (http://fontforge.org)
-->
<svg xmlns="http://www.w3.org/2000/svg" xmlns:xlink="http://www.w3.org/1999/xlink" version="1.1">
<metadata>
Created by FontForge 20170812 at Wed Feb  6 15:38:52 2019
 By Vivek Das Mohapatra,,,
Copyright (c) 2016 Moon Design Publications

</metadata>
<defs>
<font id="Gloranthan-Runes" horiz-adv-x="547" >
  <font-face 
    font-family="Gloranthan-Runes"
    font-weight="400"
    font-stretch="normal"
    units-per-em="1024"
    panose-1="2 0 5 3 0 0 0 0 0 0"
    ascent="819"
    descent="-205"
    bbox="-1 -9 1087 780"
    underline-thickness="51.2"
    underline-position="-102.4"
    unicode-range="U+E000-E071"
  />
    <missing-glyph />

<!--
Darkness
-->
    <glyph glyph-name="DARKNESS" unicode="&#xe000;" horiz-adv-x="820" 
d="M742 330l-14 -25l9 -19c-2 -9 -10 -15 -26 -16c0 -5 2 -13 5 -24s5 -19 5 -24c0 -12 -26 -51 -77 -117l-31 7l8 -16c-6 -16 -23 -32 -48 -48s-45 -24 -62 -24c-5 0 -13 2 -22 6s-14 8 -16 12c-6 -7 -16 -12 -29 -16c-16 -5 -25 -10 -30 -13c-8 6 -17 12 -25 15l-9 -4
c-8 -14 -19 -22 -34 -22c-53 0 -105 19 -155 58c-21 16 -40 34 -58 56s-35 45 -51 71c2 3 6 6 10 9s9 5 14 7s10 5 14 7s8 5 10 7c-16 10 -30 13 -41 10c-14 5 -19 13 -18 25c-7 5 -14 21 -20 50c-5 26 -8 45 -8 57c0 14 5 24 15 30c-3 12 -4 23 -3 33l1 19c5 4 11 14 19 28
c8 15 14 25 20 28c10 -4 20 -7 29 -7c5 0 11 2 16 4c-7 12 -18 21 -34 26c1 15 9 33 24 55c14 20 28 34 43 39c25 30 45 43 61 39c5 12 19 22 42 32s42 15 56 15c21 0 43 -5 66 -17c27 -14 47 -23 58 -26l27 24l13 -4c5 10 8 15 11 15c12 0 46 -27 105 -81
c66 -61 101 -109 105 -144c-3 -5 -7 -11 -9 -17s-5 -12 -6 -18c-12 -3 -21 -7 -31 -12l12 -2c5 0 20 3 45 11z" />

<!--
Water
-->
    <glyph glyph-name="WATER" unicode="&#xe001;" horiz-adv-x="847" 
d="M717 256c0 -10 -8 -20 -22 -31c-17 -13 -26 -22 -28 -27c-28 -21 -60 -53 -93 -95c-1 -1 -2 -1 -5 -1c-1 0 -4 1 -7 4s-6 5 -7 5l-2 -2s-1 -2 -3 -4c0 -16 -7 -30 -20 -43l-48 -51l-10 9c-3 3 -6 9 -8 20s-3 23 -4 35c0 1 -1 3 -4 5s-4 4 -4 5c0 5 -7 19 -19 41
c-5 -1 -11 -7 -21 -17c-5 -5 -9 -10 -13 -12s-7 -3 -10 -4s-6 -3 -8 -4s-4 -4 -6 -7l-5 -10c-10 -5 -29 -25 -54 -60h-4c-3 0 -8 2 -13 5c-5 12 -10 24 -13 34s-5 20 -6 28l6 9l1 5c1 3 1 6 2 10c2 6 1 7 3 13c1 4 2 7 2 9c0 5 -1 8 -4 8c-4 0 -11 -3 -20 -10l-15 -11
c-3 -3 -6 -8 -10 -12s-9 -10 -14 -15l-3 2c-3 0 -8 -3 -17 -10s-14 -10 -16 -10l-4 3v1h-1c-1 -1 0 -1 -2 -3c-1 -1 -5 -3 -10 -6c-1 -1 -2 -2 -2 -3s1 -2 3 -5s3 -4 3 -5c1 -12 -12 -26 -38 -42h-13c-6 0 -16 -1 -29 -3s-22 -3 -28 -3c-9 0 -17 3 -22 11c1 7 7 16 18 27
s17 18 19 22c3 3 8 9 16 17s18 20 32 34c10 11 19 20 28 28s17 15 26 20c9 2 14 -1 14 -10c1 -5 3 -9 6 -11c4 3 9 14 17 32l11 35c10 2 14 8 14 20l16 22c8 10 15 15 22 17c14 0 21 -6 23 -20c4 -20 7 -31 8 -32c3 -5 6 -12 11 -20s10 -17 18 -27c2 1 5 2 7 5s5 5 8 8
s5 5 7 8s5 5 6 6c5 1 10 1 14 1s7 1 10 1c7 0 12 -1 13 -2c7 5 10 8 10 11c0 1 -2 1 -5 2s-6 3 -7 4l-15 -1c-1 7 5 15 17 25c12 11 18 19 19 24l15 12c5 5 10 8 15 8c2 0 4 -2 7 -3l7 -21l10 -43c-2 -2 -3 -6 -3 -11c5 -2 11 -9 17 -21s10 -17 12 -18c6 1 13 5 21 15
s12 16 14 17c1 -1 8 0 22 1c6 1 14 -2 22 -5c2 1 2 4 1 5l-4 5c-2 1 -5 5 -10 11c0 3 2 7 8 13s9 9 10 11c2 12 15 23 38 34c4 1 7 2 10 2c5 0 13 -1 23 -4s17 -4 22 -4s11 1 14 3c3 1 7 -1 11 -9zM143 294c0 3 0 6 -2 8s-3 3 -3 4c0 3 2 6 7 10s11 9 18 17
c28 21 59 52 92 94c1 1 2 1 5 1c1 0 4 -1 7 -4s6 -4 7 -4l2 2s2 1 4 3c0 14 6 29 19 43l39 42l9 2c3 1 7 0 10 -2c10 -7 18 -25 23 -54c-1 -4 -2 -8 -2 -11c0 -6 6 -20 18 -41c5 1 12 7 21 17c5 5 9 10 13 12s7 4 10 5s6 2 8 3s5 5 7 8l5 10c16 8 36 30 63 69
c-1 -1 0 -11 4 -30c1 0 2 3 1 9l2 6c3 -6 6 -15 8 -27s5 -26 6 -44l13 -16c5 -7 10 -9 17 -7c3 3 6 8 10 12l14 14c3 -4 7 -8 15 -12c-1 2 -1 5 -1 8c0 11 7 21 20 30c1 2 4 5 11 9s11 7 12 9c-1 11 10 22 30 34h13c5 0 15 1 29 3c5 1 9 0 12 -3s5 -4 6 -4c9 0 17 -3 22 -11
c-1 -8 -7 -17 -17 -27l-21 -21l-37 -41c-19 -21 -37 -37 -54 -48c-9 -2 -13 1 -13 10c-1 5 -4 8 -7 10c-3 -2 -5 -13 -7 -32l-26 -34l-23 -31l-23 -29c-8 13 -18 30 -31 52c-1 5 -3 11 -6 19s-9 17 -14 29c-7 -2 -14 -7 -24 -14c-7 -8 -11 -12 -13 -13l-21 -16
c1 -7 -4 -16 -16 -27c-12 -10 -19 -18 -20 -23l-14 -12c-5 -5 -10 -7 -15 -7c-2 0 -5 1 -8 2l-7 21l-10 43c2 2 3 7 3 12c-5 2 -10 8 -16 19c-7 12 -12 19 -13 20c-8 -1 -14 -7 -21 -16c-3 -5 -6 -8 -8 -11s-4 -4 -5 -5c-3 3 -7 4 -12 3s-7 -3 -7 -6c0 -1 0 -2 1 -3
s0 -2 -1 -3c-2 -1 -2 -1 -5 -3l-6 -3s-2 -3 -2 -4s-1 -3 -3 -5s-3 -4 -5 -6c-3 -4 -4 -3 -7 -7c-2 -2 -3 -4 -3 -5c-2 -12 -14 -23 -37 -34c-4 -1 -8 -2 -11 -2c-7 0 -14 1 -22 4c-3 1 -6 2 -9 5s-6 4 -7 4c-3 0 -1 3 4 7l7 6c-3 -1 -8 1 -12 8z" />

<!--
Earth
-->
    <glyph glyph-name="EARTH" unicode="&#xe002;" horiz-adv-x="730" 
d="M676 143c1 -6 1 -12 1 -17v-13l-4 -15c-2 -6 -2 -9 1 -9l-16 -72h-11c-7 1 -19 -1 -35 -5s-26 -6 -32 -6l-109 -1l-6 10l-13 -9c-5 -4 -11 -6 -15 -6c-9 0 -16 1 -21 4l-12 14c-3 -1 -5 -3 -7 -5l-8 -8l-136 20l-4 -13l-9 -7l-182 -2c-4 3 -6 16 -6 40c0 12 2 30 6 55
c5 23 8 42 8 56c-3 8 -9 13 -14 18v99c0 7 1 20 3 40c1 9 2 17 2 23s0 13 -1 18c5 3 6 8 5 16l-3 20c0 1 1 3 3 5s4 5 6 7s4 5 5 7s2 4 1 5l-16 -5v144c3 9 8 19 13 32s11 28 16 45h57c3 -4 9 -6 18 -6c5 0 11 1 21 3s17 3 22 3h60c-1 -1 -1 -3 -1 -8l5 -9c3 1 8 5 12 9
s10 9 17 14l9 -6h85c5 0 11 1 20 3s15 3 19 3s9 0 17 -1c11 -1 12 -1 23 -2s12 -1 23 -2c8 -1 13 -1 17 -1l7 -12l18 17l116 -15l19 -158c1 -5 0 -12 0 -20s-1 -15 -2 -25c-1 -12 -3 -21 -3 -29v-16l-20 -53c2 -5 5 -10 8 -15l12 12v-1c0 -5 2 -10 6 -15l-1 -17v-19
s1 -21 2 -36zM436 97l4 -11l31 -2c5 -1 11 -1 20 0s19 3 33 4c11 1 21 2 30 2s17 0 24 -1c0 3 6 21 20 56l-4 104l-4 -1c3 0 4 0 4 1c0 25 1 40 4 43l-1 8c0 6 1 15 3 27s3 20 3 26v70c-4 3 -8 7 -12 15c0 4 1 10 2 16s3 12 4 19s3 14 4 20s2 11 2 15c0 3 -7 14 -23 32
l-118 9l-8 -6l-14 6h-31l-77 -12c-3 9 -11 14 -24 16l-22 -13l-7 9h-74c-7 0 -18 -2 -32 -6c-15 -4 -26 -6 -33 -5c-5 -10 -9 -25 -13 -46l6 -14l-10 -28c1 -19 1 -39 3 -59s4 -41 7 -62c9 -2 13 -6 13 -11s-2 -11 -6 -20s-6 -15 -7 -19c-2 -12 -3 -33 -3 -61v-134h101
l18 10l56 -10h112z" />

<!--
Air
-->
    <glyph glyph-name="AIR" unicode="&#xe003;" horiz-adv-x="716" 
d="M591 82c-10 -8 -19 -18 -28 -31c-11 -7 -24 -13 -38 -18s-31 -10 -50 -15c-33 -9 -65 -13 -94 -13c-24 0 -43 5 -58 15c-5 3 -15 13 -29 28c-9 9 -17 13 -24 12c-16 -2 -22 -3 -18 -3c-7 0 -15 4 -24 11c-12 10 -19 14 -22 15c-6 8 -13 16 -21 24s-16 15 -23 22
s-14 13 -20 19s-10 12 -13 16c-10 14 -19 37 -27 69l11 12c-25 8 -40 15 -45 25v4c0 7 -3 17 -8 29s-7 21 -7 27c0 7 2 13 5 20c-5 10 -7 20 -7 32c0 24 11 49 33 75c2 27 6 42 12 45l38 12l-6 6c-5 1 -11 2 -18 2l-10 1c-3 5 -5 10 -5 14c14 37 44 69 88 98
c27 17 67 36 122 58c-1 -7 2 -11 7 -12h10c3 0 5 0 8 1c3 -4 4 -8 3 -12h2c5 0 18 10 37 31c3 1 7 2 11 2h13c40 0 82 -8 124 -24c51 -19 82 -45 92 -78c-1 -4 -3 -9 -7 -13s-9 -9 -13 -14s-8 -9 -12 -13s-7 -9 -8 -12l-12 -3c-33 25 -72 42 -116 54c-5 8 -9 17 -11 28
c-5 -1 -9 -5 -12 -10l-10 -12c-14 -2 -38 -10 -71 -24c-29 -13 -53 -20 -73 -20c-10 -10 -17 -15 -22 -14h-3c-4 4 -10 6 -18 6c1 -7 2 -12 2 -16c0 -15 -4 -30 -14 -45l-26 -42c-3 -5 -6 -13 -8 -23s-4 -23 -7 -38c-5 -26 -12 -45 -21 -57c12 -3 20 -15 24 -33l9 -44
c3 -3 9 -10 17 -19s16 -20 28 -34c10 -12 18 -21 27 -29s17 -14 25 -19c3 -5 5 -11 5 -16s-2 -14 -6 -27c23 14 38 21 44 21c3 0 8 -1 15 -4s13 -4 18 -4s14 2 25 4s21 3 26 3c7 0 12 -1 16 -3c1 -6 2 -12 5 -18c13 17 13 17 20 26c4 6 7 8 8 9c12 14 22 22 34 25
c3 7 10 13 19 20l12 -3c-1 4 -2 8 -2 11c0 10 6 20 17 33c12 15 17 26 17 34c0 7 -2 14 -6 20l-1 12c-1 15 3 26 12 32c-3 1 -6 0 -10 -1s-7 -1 -9 -1c-1 0 -4 1 -8 2c-7 14 -19 25 -39 35c-18 8 -37 11 -54 11c-18 0 -35 -8 -51 -24l-14 -46c0 -8 3 -14 10 -20
c1 -4 1 -7 0 -8c-4 -16 -15 -27 -33 -30c-26 -5 -42 -9 -47 -12c-11 3 -19 7 -24 14c-14 47 -21 75 -21 85c0 15 4 28 13 39c3 9 8 16 14 22c7 0 13 1 19 3c-1 3 -4 7 -8 10s-6 7 -6 10v2c39 37 85 58 139 63c1 0 9 -7 23 -22l7 1l7 19c42 -3 70 -12 84 -26
c-1 -7 -2 -13 -1 -18v-12h2c4 0 9 3 14 10s11 10 16 10c6 0 13 -3 21 -8s15 -13 23 -25l32 -49v-4c-1 -9 0 -21 3 -37c2 -12 2 -13 4 -22c1 -6 2 -11 2 -14c0 -14 -4 -27 -12 -39l8 -31l-60 -97c-3 -1 -6 -4 -10 -6s-7 -6 -12 -9v-3c0 -3 2 -7 5 -11s5 -8 6 -9z" />

<!--
Fire/Sky
-->
    <glyph glyph-name="FIRE.SKY" unicode="&#xe004;" horiz-adv-x="786" 
d="M729 278c-10 -16 -17 -39 -20 -68c-5 -1 -10 -3 -13 -5c-4 -7 -4 -13 0 -18c3 -1 8 -4 11 -9l-10 -28c-12 -15 -32 -36 -61 -63c-33 -31 -55 -47 -64 -48c-4 0 -16 7 -37 23c1 -1 1 -3 1 -6v-7c0 -3 0 -7 1 -11c1 -10 -2 -17 -7 -20c-5 -1 -10 -1 -16 -3l-24 -8
c-18 -6 -30 -9 -38 -9c-10 0 -18 3 -26 8l-12 30l-14 -32c-12 -4 -23 -6 -35 -6s-29 2 -49 6c-12 3 -21 5 -29 6c-12 2 -13 1 -21 2c-117 65 -183 141 -198 227c-5 12 -11 29 -16 50c-1 3 -1 7 -1 11s-1 8 -1 13c0 16 2 37 5 62s8 56 13 91c3 5 7 12 11 20c6 12 6 13 14 29
c11 4 24 21 38 51c9 4 18 9 28 13s15 10 15 17c0 2 0 4 -1 5c14 27 39 48 76 62c33 13 70 19 112 19c36 0 68 -4 93 -14l21 -21c3 2 7 4 11 7s10 7 16 10h7c6 -6 19 -14 37 -23c18 -8 29 -17 33 -25c9 -6 16 -20 21 -42c6 -23 15 -35 25 -40c3 -16 9 -25 18 -24
c6 3 13 4 21 4c25 0 42 -25 54 -73c8 -35 12 -77 12 -127v-20c0 -6 0 -11 -1 -16zM608 383c-5 23 -12 39 -21 49c-12 37 -19 59 -19 64c0 4 1 9 2 14c-2 -1 -4 -3 -7 -5s-7 -3 -10 -5l-5 1c-5 5 -13 9 -22 14s-20 10 -33 15s-24 11 -33 16s-17 9 -22 12c-3 -1 -7 0 -12 1
s-10 3 -15 5s-10 3 -15 5s-8 2 -11 2c-7 0 -12 -2 -17 -6c-16 -2 -29 6 -38 23c-10 -25 -22 -37 -37 -37c-12 -9 -22 -17 -30 -22l-18 -12c-18 -11 -37 -17 -56 -19l-2 -26l6 -8c-8 -19 -16 -29 -23 -30c-4 0 -10 2 -20 7l27 -33c-8 -14 -15 -54 -23 -121
c6 -8 32 -47 79 -117l64 -28c14 -5 24 -12 31 -20s11 -17 14 -26c3 3 7 6 12 9s11 7 18 10c3 -3 8 -4 14 -4c4 0 9 0 17 2s14 3 18 3c8 0 14 -2 19 -7l2 -1c3 1 7 3 10 6s6 6 9 10s6 8 9 11s5 5 7 6c51 16 88 50 113 101c6 6 11 22 14 47c2 23 8 36 17 41zM454 373
c2 -25 -1 -41 -9 -47c6 -3 10 -9 10 -14c0 -10 -9 -18 -26 -27c-17 -10 -33 -15 -48 -15c-12 0 -20 4 -26 9s-11 16 -14 34c-3 14 -9 25 -19 30c1 12 6 22 15 32s19 15 29 15c9 0 16 -4 22 -12l3 17c1 8 4 13 12 13c12 0 30 -12 51 -35z" />

<!--
Moon
-->
    <glyph glyph-name="MOON" unicode="&#xe005;" horiz-adv-x="794" 
d="M744 348c-3 -3 -6 -8 -10 -14s-8 -14 -13 -24c3 -11 4 -23 4 -35c0 -45 -19 -88 -58 -130c-3 -3 -15 -13 -33 -30s-45 -40 -79 -70c-4 -1 -9 -3 -15 -5s-13 -5 -21 -8c-16 -8 -28 -12 -36 -13c-4 -8 -10 -14 -19 -18c-1 4 -4 8 -6 12s-4 8 -7 11l-23 -6l-9 7
c-8 -1 -15 -6 -21 -12c-10 -10 -15 -15 -17 -16c-19 12 -39 16 -60 13c-15 9 -31 15 -45 16l8 26c-15 -1 -26 -5 -33 -12c-8 -1 -19 0 -33 4c-3 15 -21 27 -54 37l-47 62c-12 15 -20 29 -25 42s-7 23 -7 33c0 3 1 8 2 15c-10 3 -19 10 -24 22c2 14 5 28 7 42s3 28 1 40
l-17 14c5 10 11 29 17 55l-20 28l63 94c14 22 27 40 40 53s23 23 33 28c2 1 16 7 41 17c16 6 28 13 35 23c9 -1 26 2 51 11c27 9 45 17 53 24c5 -3 22 -1 51 5c5 -4 13 -9 22 -15s20 -12 33 -20l12 11c42 -12 79 -29 111 -50c43 -28 67 -59 72 -92l-10 -21l8 -10l20 4l17 -9
c8 -14 16 -37 23 -68c7 -36 13 -60 18 -71zM594 470c-3 8 -12 20 -24 36c-10 14 -15 28 -18 42c-1 7 -8 13 -20 20c-1 -1 -2 -1 -5 -1s-13 5 -31 13s-35 11 -51 10c-6 -12 -10 -35 -11 -67c-1 -33 -4 -55 -9 -69l-6 -10l5 -9c7 -8 10 -19 10 -33c0 -6 -1 -16 -3 -29
s-3 -23 -3 -30c0 -10 1 -18 4 -24c3 -9 2 -19 -3 -31c8 -14 12 -35 12 -61v-18s-1 -16 -2 -26s-1 -17 -1 -24s-1 -13 -1 -18c0 -20 2 -35 6 -46l16 23c10 1 32 13 65 35l55 36l24 63c8 20 13 39 16 57s5 34 5 50c0 40 -11 75 -32 102zM366 286c-5 -2 -13 -2 -21 1
c-5 26 -7 49 -7 69c0 25 3 47 10 65c-8 24 -9 60 -1 110c-3 1 -5 5 -5 10s2 12 6 22s6 16 6 19c-11 1 -25 -4 -41 -15l-38 -24c-18 8 -28 11 -29 11l-5 -33c0 -1 -7 -12 -19 -32c-10 -14 -17 -22 -22 -24c-5 -8 -14 -17 -24 -27c-15 -15 -22 -39 -22 -72c0 -10 1 -29 3 -54
c1 -12 2 -22 2 -32s1 -18 0 -26c4 -5 10 -13 19 -23s19 -20 33 -34c10 -10 18 -20 24 -28s11 -16 14 -23c6 0 13 3 21 6c8 -5 15 -11 22 -16s13 -9 21 -14c23 -15 38 -23 44 -22c-1 7 -3 16 -4 27s-2 26 -3 43s-1 31 -2 43s-2 21 -3 28c3 8 6 15 9 23s7 15 12 22z" />
    <glyph glyph-name="uniE010" unicode="&#xe010;" horiz-adv-x="556" 
d="M556 318c1 -16 -3 -31 -12 -46c-3 -2 -4 -4 -4 -7c0 -2 1 -5 3 -9s4 -7 4 -9c2 -14 -6 -36 -23 -66c-3 -2 -6 -6 -9 -11s-5 -10 -8 -15s-5 -11 -8 -16s-7 -9 -11 -11c-8 -5 -19 -12 -32 -22s-28 -22 -46 -37c-9 2 -18 -2 -27 -11s-18 -12 -27 -10c-7 -1 -15 -4 -26 -10
c-3 -1 -5 -2 -7 -2s-5 1 -9 3s-7 3 -9 3c-3 0 -6 -2 -9 -5c-3 0 -8 3 -14 8s-12 6 -16 5c-8 -14 -22 -18 -43 -12c-12 5 -23 9 -33 12s-19 6 -29 7c-1 6 1 12 8 17l15 12l-2 2c-2 -1 -7 -2 -17 -5s-23 -7 -40 -12c-2 1 -5 3 -9 6s-8 7 -12 11s-8 7 -12 10s-9 5 -13 6
c-10 3 -18 12 -25 26c-8 17 -13 28 -16 32c-7 5 -11 14 -13 27c-8 11 -12 20 -12 28c0 5 1 9 4 12c-11 4 -16 11 -17 19c1 19 5 32 14 37c-1 1 -1 10 -1 26c0 11 -3 19 -11 23c5 5 10 14 15 28c-5 11 -7 28 -8 50l27 42c3 5 11 13 23 24s27 27 47 49l13 14c4 -2 7 -3 10 -3
s6 1 9 3s7 5 10 8s7 5 10 7s7 3 10 3c10 1 21 2 31 3s17 6 21 15c43 12 78 15 104 11l7 -14c3 0 6 -2 9 -6s5 -6 6 -6s4 1 6 3s4 4 7 6s7 2 10 -1l4 -6c1 -2 3 -2 6 -1s8 1 14 -3s11 -6 14 -6c11 -5 19 -10 27 -14s14 -8 17 -11c15 -10 25 -22 31 -37c23 -20 33 -38 31 -50
l-10 -14c5 0 11 -1 17 -4c4 4 8 5 12 3c3 -1 4 -4 4 -8s1 -7 4 -8c1 -10 3 -24 6 -39s7 -34 10 -54z" />
    <glyph glyph-name="uniE011" unicode="&#xe011;" horiz-adv-x="545" 
d="M483 151c-5 -16 -24 -34 -55 -53c-4 -5 -14 -11 -29 -18c-14 -8 -23 -16 -27 -25c-3 -5 -11 -7 -22 -6s-18 -2 -22 -8c-4 -1 -9 1 -13 6s-7 7 -10 7c-2 0 -4 -1 -7 -3c-4 0 -8 2 -13 7l-31 -21c-6 -1 -15 -1 -27 3s-20 5 -27 3c-7 3 -15 9 -23 19c2 3 4 10 5 21
c-2 3 -4 5 -7 5c-1 0 -4 -2 -8 -4s-6 -3 -8 -3c-4 -1 -9 -2 -14 -3s-11 -2 -17 -5c-3 6 -12 12 -26 19c-14 8 -21 15 -24 21c-15 18 -33 45 -54 83l3 24c-12 2 -20 10 -21 22c5 5 7 14 6 30s0 27 3 32c-5 4 -7 10 -7 18c0 4 1 10 3 19s3 15 3 19c0 9 -2 16 -7 21s-7 9 -7 13
c0 6 4 14 14 24c10 11 16 18 17 23c7 13 18 28 34 46c12 16 24 30 37 44c6 -1 16 3 28 8c5 11 17 16 37 16c19 1 32 6 37 18l10 6c3 3 7 2 12 -1c25 12 48 15 71 9l25 -26c2 -2 4 -3 6 -3c1 0 3 1 6 4s6 4 8 4c6 -2 15 -4 25 -7s21 -7 35 -10c13 -1 26 -9 40 -24
c16 -18 27 -30 34 -35c0 -1 4 -7 12 -18c5 -9 9 -16 9 -21s-3 -11 -7 -15l11 -5c4 -2 8 -1 11 3c2 -1 6 -9 14 -27c1 -3 2 -9 4 -16s5 -15 8 -26c5 -20 8 -34 8 -43c0 -13 -3 -25 -11 -36c-1 -4 -3 -6 -3 -7c0 -3 2 -9 5 -15s5 -11 5 -14c0 -12 -8 -29 -23 -52
c-7 -10 -13 -19 -19 -27s-12 -15 -17 -20zM271 130c-8 3 -15 8 -23 15c-1 8 -6 13 -14 15c-1 0 -8 7 -20 23c-1 2 2 5 8 8s8 7 7 12c-3 -1 -8 -1 -15 0c-4 1 -7 2 -8 3s-1 3 -1 5v7s0 6 -1 10c-8 11 -11 20 -11 25c0 3 2 6 6 11s6 8 5 11c-8 1 -15 5 -22 9c-1 1 -2 9 -3 26
c-2 25 -3 37 -3 36c0 4 3 10 8 18s5 8 8 12c2 3 3 5 4 7s2 6 3 8s1 5 2 9c2 2 4 3 7 4s6 2 8 3s5 3 7 5s4 7 6 12c-7 3 -10 7 -10 13c0 3 0 7 1 11s7 12 18 22c4 3 8 8 13 12s10 9 15 14l5 -1c-34 4 -57 -3 -69 -19c-10 -5 -26 -6 -49 -3c-1 -17 -13 -35 -36 -54
c-19 -15 -29 -40 -29 -74c0 -6 1 -21 3 -44c-2 -3 -3 -14 -2 -30c0 -12 -3 -20 -11 -23c5 1 11 -2 19 -12c2 -6 12 -17 28 -31c14 -12 19 -24 16 -36c3 -12 10 -17 19 -17c2 0 5 0 10 1s8 1 10 1c8 0 14 -4 18 -9c3 2 6 3 10 3c3 0 6 -1 10 -3l12 -6c6 -4 7 -3 13 -7
c4 -2 7 -4 10 -4c3 2 7 3 10 2c4 -1 7 -1 8 0z" />
    <glyph glyph-name="uniE012" unicode="&#xe012;" horiz-adv-x="545" 
d="M541 244c-12 -34 -31 -65 -58 -93c-5 -16 -24 -34 -55 -53c-4 -5 -14 -11 -29 -18c-14 -8 -23 -16 -27 -25c-3 -5 -11 -7 -22 -6s-18 -2 -22 -8c-4 -1 -9 1 -13 6s-7 7 -10 7c-2 0 -4 -1 -7 -3c-4 0 -8 2 -13 7l-31 -21c-6 -1 -15 -1 -27 3s-20 5 -27 3
c-7 3 -15 9 -23 19c2 3 4 10 5 21c-2 3 -4 5 -7 5c-1 0 -4 -2 -8 -4s-6 -3 -8 -3c-4 -1 -9 -2 -14 -3s-11 -2 -17 -5c-3 6 -12 12 -26 19c-14 8 -21 15 -24 21c-15 18 -33 45 -54 83l3 24c-12 2 -20 10 -21 22c5 5 7 14 6 30s0 27 3 32c-5 4 -7 10 -7 18c0 4 1 10 3 19
s3 15 3 19c0 9 -2 16 -7 21s-7 9 -7 13c0 6 4 14 14 24c10 11 16 18 17 23c7 13 18 28 34 46c12 16 24 30 37 44c6 -1 16 3 28 8c5 11 17 16 37 16c19 1 32 6 37 18l10 6c3 3 7 2 12 -1c25 12 48 15 71 9l25 -26c2 -2 4 -3 6 -3c1 0 3 1 6 4s6 4 8 4c6 -2 15 -4 25 -7
s21 -7 35 -10c13 -1 26 -9 40 -24c16 -18 27 -30 34 -35c0 -1 4 -7 12 -18c5 -9 9 -16 9 -21s-3 -11 -7 -15l11 -5c4 -2 8 -1 11 3c2 -1 6 -9 14 -27c1 -3 2 -9 4 -16s5 -15 8 -26c5 -20 8 -34 8 -43c0 -13 -3 -25 -11 -36c-1 -4 -3 -6 -3 -7c0 -3 3 -9 6 -17s4 -13 3 -18z
M275 224c-5 5 -8 13 -10 23c3 12 4 26 3 44c-1 17 -1 29 -1 36s-1 10 -1 8l5 10c1 4 2 7 2 10c0 2 -1 5 -3 9s-5 8 -8 12s-5 9 -7 13s-3 8 -3 11c1 10 5 16 13 18c4 9 6 22 6 38v39c-34 4 -57 -3 -69 -19c-10 -5 -26 -6 -49 -3c-1 -17 -13 -35 -36 -54
c-19 -15 -29 -40 -29 -74c0 -6 1 -21 3 -44c-2 -3 -3 -14 -2 -30c0 -12 -3 -20 -11 -23c5 1 11 -2 19 -12c2 -6 12 -17 28 -31c14 -12 19 -24 16 -36c3 -12 10 -17 19 -17c2 0 5 0 10 1s8 1 10 1c8 0 14 -4 18 -9c3 2 6 3 10 3c3 0 6 -1 10 -3l12 -6c6 -4 7 -3 13 -7
c4 -2 7 -4 10 -4c2 1 6 2 11 2s8 1 9 6c-3 10 -5 20 -5 30c0 8 1 18 3 30c3 14 4 23 4 28z" />
    <glyph glyph-name="uniE013" unicode="&#xe013;" horiz-adv-x="553" 
d="M554 316c0 -1 -1 -2 -3 -4s-5 -4 -7 -7s-4 -7 -6 -10s-2 -5 -2 -8c0 -5 1 -12 4 -21s4 -15 4 -20c0 -4 0 -7 -1 -9c-5 -11 -14 -25 -24 -40s-23 -34 -38 -55c-5 -14 -18 -26 -37 -37c-23 -12 -37 -22 -42 -30c-9 1 -18 -4 -28 -12c-9 -8 -19 -11 -29 -10
c-2 -1 -5 -3 -7 -7s-5 -7 -8 -7c-1 5 -5 10 -11 17c-2 1 -5 1 -9 -1s-8 -3 -9 -3c-3 0 -5 2 -7 6c-3 1 -6 0 -9 -2s-6 -4 -8 -7c-4 -4 -3 -4 -7 -8c-2 -3 -5 -4 -7 -4c-3 0 -7 1 -11 3c-4 5 -11 8 -19 8c-2 0 -5 0 -9 -1s-7 -1 -9 -1c-9 0 -15 3 -19 9c-10 0 -16 1 -16 4
c1 3 1 7 2 10s2 7 3 11c-5 2 -10 0 -15 -4s-8 -6 -10 -6c-1 0 -3 1 -6 2c-12 -4 -20 -3 -21 2c-1 8 -6 14 -17 18c-5 1 -9 3 -12 4s-6 3 -8 4l-6 3c-3 7 -10 15 -21 24s-18 19 -19 29l-14 27c-6 11 -9 21 -9 29c0 3 1 7 2 12c-13 4 -20 11 -20 19c0 3 0 5 1 7c1 3 2 10 4 20
s3 17 3 22s-1 10 -2 15c-9 0 -13 3 -13 11c0 2 0 5 1 6c5 3 9 8 10 16s1 14 2 22c-2 3 -4 6 -6 10s-6 9 -9 14c3 3 7 9 10 15s7 14 10 24c12 24 42 57 89 100c10 0 16 4 20 12c19 3 32 9 40 21c4 -2 8 -3 11 -3c6 0 15 4 27 13c11 7 21 9 29 7c3 0 8 4 16 10
c6 -2 13 -2 21 0c10 3 17 4 20 4c5 0 9 -2 12 -5c5 -7 16 -14 32 -22c-1 5 2 7 10 7c4 -1 16 -4 35 -7c14 -1 24 -6 32 -14c5 -8 17 -18 37 -32c19 -13 31 -25 37 -37c7 -20 6 -33 -3 -40c-1 -3 2 -6 7 -7c1 1 2 1 4 1h4c2 0 5 0 8 1c7 1 11 -1 13 -5c10 -18 18 -45 23 -78
c1 -3 2 -8 3 -14s4 -13 7 -21zM457 307c1 18 -1 39 -6 61c2 8 0 15 -5 21s-9 13 -14 18c1 4 2 7 2 8c0 5 -3 9 -10 13s-10 8 -10 13c-6 6 -11 18 -13 35c-2 18 -7 29 -16 34l6 -23c1 -5 -1 -9 -6 -11c-4 -1 -8 -1 -12 0c-22 14 -38 21 -49 21c-3 0 -8 -1 -12 -2
c-3 -5 -4 -11 -4 -19c0 -5 1 -13 3 -23s2 -18 2 -23c0 -15 -7 -25 -22 -30c-5 -5 -6 -9 -1 -13c15 -6 22 -18 22 -35c0 -3 0 -9 -1 -17s-1 -14 -1 -17c0 -10 1 -17 4 -22c2 -5 1 -11 -4 -15s-8 -9 -8 -13c8 -14 11 -31 11 -51v-8c0 -3 0 -7 -1 -12v-20c0 -16 2 -31 6 -43
c6 -3 12 -2 17 3c4 0 9 2 13 4s9 4 13 7s9 6 13 9s7 4 10 5c8 5 15 11 23 16s16 6 24 4c-1 4 -2 9 -2 12c0 5 2 11 7 19s7 14 8 18c1 3 4 12 6 28c1 3 2 6 3 11s1 10 1 15s1 9 1 13s1 7 2 9zM251 266c-5 -1 -11 -1 -17 1c-8 46 -6 83 4 109c-7 18 -7 47 -1 88
c-5 2 -9 7 -9 15c1 7 1 12 1 15s0 5 0 4c-4 1 -7 2 -8 2c-2 0 -4 -1 -7 -3s-7 -5 -10 -7s-5 -5 -8 -7s-6 -4 -8 -5c-3 -4 -6 -6 -9 -6c-2 0 -6 2 -11 6s-9 4 -12 3c-1 -3 -1 -6 -2 -10s-1 -10 -2 -16c-4 -3 -10 -12 -15 -24s-11 -18 -18 -21c-1 -4 -8 -12 -21 -24
c-10 -8 -14 -18 -12 -28c6 -34 7 -66 3 -97c-8 -12 -11 -18 -11 -19c7 1 11 2 12 2c12 0 23 -9 31 -26c5 -11 9 -19 13 -25s7 -11 10 -12c2 -3 5 -7 7 -11s4 -9 7 -14c3 -2 8 -1 17 4l26 -16c12 -5 21 -8 28 -7c-1 7 -2 13 -2 16c0 7 2 17 5 31s5 24 5 31c0 3 -2 8 -3 15
c4 13 10 25 17 36z" />
    <glyph glyph-name="uniE014" unicode="&#xe014;" 
d="M528 280c-1 -3 0 -8 1 -12s3 -8 5 -12s3 -8 5 -11s3 -6 3 -8c0 -5 -4 -10 -10 -15c-1 -4 -3 -9 -6 -14l-9 -12c-5 -14 -16 -28 -30 -42c-20 -21 -30 -34 -33 -38c-7 -5 -14 -12 -23 -18s-19 -13 -31 -20c-13 -8 -13 -9 -26 -17c-9 -5 -18 -11 -28 -16c-3 -2 -7 -3 -10 -3
s-8 2 -13 5s-10 4 -13 4c-4 0 -8 -1 -11 -4c-3 0 -6 2 -9 5l-6 6c-7 -14 -16 -21 -26 -22c-36 4 -65 10 -85 19c0 3 3 8 8 12s7 9 7 12s0 4 -1 5c-3 3 -6 5 -8 5s-6 -2 -12 -5s-10 -4 -13 -3c-14 -8 -21 -12 -22 -12c-2 0 -3 0 -4 1l-5 5s-6 4 -10 6s-11 5 -20 8
c-14 4 -21 12 -21 23c-1 2 -3 4 -7 6s-6 4 -7 6c-2 10 -9 24 -21 41c-11 15 -17 28 -17 40c0 3 2 7 3 12c-3 5 -9 9 -14 12s-7 8 -4 15c0 6 2 14 4 25s3 20 3 25s0 9 -1 11l-8 4c-3 1 -4 4 -3 7c0 5 2 13 4 24s3 20 3 25c0 8 -1 15 -4 20c-1 5 0 11 4 17s7 11 11 16
c5 10 12 18 18 28c9 14 9 15 18 29c14 23 30 39 47 50c8 0 18 5 31 15s23 15 31 15c5 0 8 0 10 -1c35 20 74 31 115 33c1 3 4 3 12 1l17 -23c1 0 5 2 8 5s6 4 7 4c2 0 4 -1 5 -3c4 -2 10 -4 19 -5s16 -3 20 -6c3 1 6 1 10 -1s7 -5 10 -7l9 -6s6 -3 8 -3c3 0 5 0 7 1
c4 -2 8 -5 12 -9s7 -8 11 -12l11 -11s7 -6 10 -7c6 -8 13 -16 20 -25s11 -18 10 -29c-3 -8 -5 -13 -5 -14c3 -2 9 -2 17 -1c6 2 11 2 14 1c1 -8 4 -16 7 -27s8 -24 13 -38c-1 -2 -1 -5 -1 -8c0 -5 1 -12 4 -22s5 -18 5 -23c0 -3 -1 -8 -2 -13c-1 -4 -4 -9 -10 -13
s-9 -8 -8 -13zM451 276c4 42 1 74 -8 97c-1 5 -2 11 -4 18s-4 15 -6 25c-5 1 -9 4 -12 11c-3 10 -5 15 -6 16c-8 4 -14 13 -16 27c-2 16 -6 27 -11 32c-1 -2 -1 -4 -1 -7c-1 -2 -1 -6 -1 -9s0 -7 -1 -11c-2 -2 -4 -3 -7 -3s-8 2 -14 6s-12 5 -15 5c-1 1 -2 3 -4 6s-5 5 -8 4
c-3 -2 -7 -4 -10 -4c-4 0 -10 2 -17 4s-13 4 -16 4c-6 0 -11 -4 -16 -11c-1 -4 0 -9 3 -16c-4 -3 -8 -11 -10 -23c-1 -12 -5 -18 -12 -20c4 -10 6 -21 5 -34l-3 -36c-1 -3 -1 -5 -1 -7s-1 -4 -1 -7c0 -4 1 -13 3 -25c2 -8 2 -16 1 -24c10 1 16 0 17 -3s2 -6 2 -8
c0 -7 -7 -17 -19 -30c-7 -8 -10 -18 -10 -30c0 -14 3 -27 10 -40l-3 -28c-1 -10 1 -20 4 -28c3 -1 6 -2 9 -2h10c4 0 9 1 15 2s12 3 19 4s13 3 19 5s11 2 15 2c31 23 57 37 76 41c2 3 2 7 1 12c-2 5 -2 10 -1 14c12 12 21 35 24 71z" />
    <glyph glyph-name="uniE015" unicode="&#xe015;" 
d="M528 280c-1 -3 0 -8 1 -12s3 -8 5 -12s3 -8 5 -11s3 -6 3 -8c0 -5 -4 -10 -10 -15c-1 -4 -3 -9 -6 -14l-9 -12c-5 -14 -16 -28 -30 -42c-20 -21 -30 -34 -33 -38c-7 -5 -14 -12 -23 -18s-19 -13 -31 -20c-13 -8 -13 -9 -26 -17c-9 -5 -18 -11 -28 -16c-3 -2 -7 -3 -10 -3
s-8 2 -13 5s-10 4 -13 4c-4 0 -8 -1 -11 -4c-3 0 -6 2 -9 5l-6 6c-7 -14 -16 -21 -26 -22c-36 4 -65 10 -85 19c0 3 3 8 8 12s7 9 7 12s0 4 -1 5c-3 3 -6 5 -8 5s-6 -2 -12 -5s-10 -4 -13 -3c-14 -8 -21 -12 -22 -12c-2 0 -3 0 -4 1l-5 5s-6 4 -10 6s-11 5 -20 8
c-14 4 -21 12 -21 23c-1 2 -3 4 -7 6s-6 4 -7 6c-2 9 -9 23 -21 41c-11 15 -17 28 -17 40c0 3 2 7 3 12c-3 5 -9 9 -14 12s-7 8 -4 15c0 6 2 14 4 25s3 20 3 25s0 9 -1 11l-8 4c-3 1 -4 4 -3 7c0 5 2 13 4 24s3 20 3 25c0 8 -1 15 -4 20c-1 5 0 11 4 16s8 11 11 17
c5 10 11 20 17 29s13 18 19 28c14 23 30 39 47 50c8 0 18 5 31 15s23 15 31 15c5 0 8 0 10 -1c35 20 74 31 115 33c1 3 4 3 12 1l17 -23c1 0 5 2 8 5s6 4 7 4c2 0 4 -1 5 -3c4 -2 10 -4 19 -5s16 -3 20 -6c3 1 6 1 10 -1s7 -5 10 -7l9 -6s6 -3 8 -3c3 0 5 0 7 1
c4 -2 8 -5 12 -9s7 -8 11 -12l11 -11s7 -6 10 -7c6 -8 13 -16 20 -25s11 -18 10 -29c-3 -8 -5 -13 -5 -14c3 -2 9 -2 17 -1c6 2 11 2 14 1c1 -8 4 -16 7 -27s8 -24 13 -38c-1 -2 -1 -5 -1 -8c0 -5 1 -12 4 -22s5 -18 5 -23c0 -3 -1 -8 -2 -13c-1 -4 -4 -9 -10 -13
s-9 -8 -8 -13zM451 276c4 9 6 20 6 34c0 19 -5 40 -14 63c-1 5 -2 11 -4 18s-4 15 -6 25c-5 1 -9 4 -12 11c-3 10 -5 15 -6 16c-8 4 -14 13 -16 27c-2 16 -6 27 -11 32c-1 -2 -1 -4 -1 -7c-1 -2 -1 -6 -1 -9s0 -7 -1 -11c-2 -2 -4 -3 -7 -3s-8 2 -14 6s-12 5 -15 5
c-1 1 -2 3 -4 6s-5 5 -8 4c-3 -3 -7 -5 -12 -5c-3 0 -8 2 -14 4s-12 3 -15 3c-5 0 -10 -1 -15 -3c5 1 10 -2 16 -8s13 -14 18 -22c8 -2 14 -9 17 -20c1 -5 -2 -11 -10 -18c4 -5 8 -8 13 -8s9 -2 10 -10c6 -8 3 -16 -9 -22c0 -3 2 -5 6 -7s7 -3 10 -4c-2 -7 2 -11 12 -11
l-3 -28c9 -12 13 -23 12 -32c-1 -3 -3 -6 -5 -10s-3 -8 -2 -14c-3 -8 -7 -17 -10 -29c-2 -8 -11 -10 -28 -7c0 -2 1 -5 3 -7s4 -5 7 -7s6 -5 8 -7s3 -3 3 -4c-1 -5 -5 -10 -10 -15s-9 -12 -10 -18c-3 -10 -13 -18 -27 -27c0 -4 0 -8 -2 -10s-5 -4 -8 -6l-9 -6s-6 -6 -8 -10
c9 -1 22 1 38 5c10 3 18 5 24 6s11 1 14 2c4 1 9 4 15 7s12 7 20 11c5 3 11 6 17 10s14 8 24 13c2 3 2 7 1 12c-2 5 -2 10 -1 14c8 7 13 19 15 35c3 18 6 29 9 36z" />
    <glyph glyph-name="uniE016" unicode="&#xe016;" horiz-adv-x="548" 
d="M549 334c0 -5 -1 -12 -3 -20c-1 -3 -4 -5 -6 -8s-6 -7 -9 -10c1 -5 5 -10 10 -18s7 -15 5 -22c1 -8 0 -17 -5 -25c-3 -6 -6 -11 -7 -15s-3 -7 -4 -8c-3 -5 -6 -12 -11 -18s-10 -14 -17 -22c-14 -16 -23 -30 -28 -40c-1 -1 -18 -15 -51 -42c-3 -3 -6 -4 -11 -3
c-6 1 -10 2 -11 1c-5 -10 -14 -18 -27 -24s-25 -12 -37 -17c-3 -1 -6 1 -8 4s-4 4 -5 4s-2 0 -3 -1c-5 -3 -11 -4 -15 -1c-1 1 -2 3 -3 7s-3 5 -6 5c-3 -1 -6 -3 -9 -8c-1 -4 -9 -9 -21 -16c-2 -1 -5 -1 -10 -1c-4 0 -11 1 -21 4s-18 3 -24 2c-1 1 -5 4 -12 8s-11 7 -11 11
c0 1 3 7 6 15c1 3 1 6 0 9c-4 1 -8 2 -9 2c-3 0 -5 -2 -9 -4s-8 -4 -11 -7s-7 -6 -10 -8s-7 -3 -9 -3c-3 0 -6 1 -9 3c-6 11 -20 18 -42 22c-12 6 -21 19 -31 39c-10 21 -18 35 -26 40c-8 13 -12 23 -12 29c0 3 1 6 3 9s3 5 2 6c-15 3 -24 8 -26 17c-1 3 1 8 3 13s3 9 3 12
s0 4 -1 5c-1 4 1 10 3 18s3 13 3 16c0 7 -3 11 -10 14c-1 4 1 8 5 11s4 8 3 12c0 -1 1 -1 1 1s0 7 1 15s0 14 -4 17c-3 1 -7 5 -13 15c7 12 14 29 22 51c3 3 7 8 11 14s9 13 14 21c10 8 23 23 39 47c11 6 16 9 15 9c1 0 4 -1 8 -2c2 0 3 2 4 5s1 4 2 5c13 13 28 20 45 20
c6 0 12 -1 20 -3c3 3 7 8 12 12s11 9 19 14c8 10 20 13 36 10c5 -3 10 -3 14 -2c3 1 6 3 10 4s9 3 14 6c9 -5 18 -13 30 -23l12 -5c1 1 3 4 4 6s3 4 6 7c4 1 9 -2 16 -7c11 -1 24 -6 39 -15c14 -9 27 -14 37 -16c4 -3 9 -8 14 -13s11 -10 19 -16l33 -28c3 -16 0 -29 -8 -39
c3 -2 9 -2 17 -1c9 2 13 3 14 2c4 -1 5 -6 4 -16c2 -2 4 -5 5 -10s2 -11 3 -16s4 -10 5 -15s3 -9 5 -12c0 -10 3 -23 9 -39z" />
    <glyph glyph-name="HARMONY" unicode="&#xe020;" horiz-adv-x="696" 
d="M650 376h-18c5 -26 8 -50 10 -73s3 -43 4 -62c0 -12 0 -23 -1 -34s-2 -20 -3 -30l-22 -17c20 -17 28 -42 25 -75c-1 -8 -3 -18 -4 -31s-3 -28 -4 -46c-7 -1 -14 -2 -20 -2h-9c-5 0 -11 0 -19 1c-25 2 -45 0 -61 -8l-4 2c-3 16 -4 32 -5 48s-2 33 -2 51c0 16 1 31 2 47
s2 33 3 50l39 26c-32 12 -47 39 -44 82l4 49c1 12 2 22 3 31s1 16 1 21l10 15c-8 17 -14 35 -18 53s-5 39 -4 60l6 105l37 -3c17 -1 27 -11 29 -29c5 3 12 8 21 13s18 11 30 17l6 -2l-5 -119l5 -20c2 -8 4 -18 5 -29c0 -2 0 -11 -1 -28s-3 -41 -6 -72zM392 637
c-5 -7 -9 -18 -13 -33c14 0 23 -4 27 -13c0 -3 0 -5 1 -7c-3 -11 -6 -32 -5 -62c0 -25 -5 -43 -15 -56c10 -26 15 -71 16 -134c1 -34 0 -67 -2 -97s-5 -60 -9 -89l-7 -2l-21 -29c27 2 42 -17 45 -57c3 -39 -4 -58 -20 -58h-21c-9 0 -19 0 -31 1s-21 2 -30 2h-21l-5 46h4
l5 47c1 12 -1 24 -9 38c1 3 2 10 3 18s1 18 2 30c1 18 10 35 28 50l-30 8l-4 9c8 18 10 50 8 94c-2 42 2 74 14 95c-23 37 -35 94 -36 173c0 20 17 30 50 31c5 1 15 1 28 0s28 -3 48 -5zM135 118c26 -12 39 -31 38 -56c0 -3 -1 -9 -2 -19s-3 -24 -6 -42c-5 0 -20 4 -45 12
c-20 7 -42 5 -62 -7c-3 12 -6 35 -7 66c-1 70 7 112 23 128l-20 12l-3 64c1 25 9 48 25 68c-18 18 -27 47 -24 88c1 9 2 22 5 39s8 38 13 63l-18 18c0 1 1 17 2 49c0 20 5 35 14 44c19 1 51 -4 95 -14c1 -7 2 -13 3 -19s1 -12 1 -17c0 -12 -1 -21 -4 -27h-24
c21 -43 32 -89 33 -139c1 -15 0 -34 -1 -56s-3 -48 -6 -79c8 -14 10 -39 7 -72c-1 -23 -3 -40 -4 -53s-1 -21 -1 -24z" />
    <glyph glyph-name="STASIS" unicode="&#xe024;" horiz-adv-x="669" 
d="M613 14c-10 -8 -56 -11 -140 -11c-59 0 -91 3 -94 8c0 8 2 14 6 18c-5 -3 -12 -8 -20 -12s-17 -10 -29 -15l-12 4l-15 -6c-47 3 -95 7 -146 12c-38 -12 -74 -15 -107 -9c-6 74 -2 129 11 162l17 8l-5 12c6 18 19 39 38 62c10 12 19 21 28 29s17 16 25 21l18 -1l-3 9
c5 12 23 24 51 37c27 12 46 17 58 17c6 0 10 -8 12 -25c9 19 25 28 49 28c12 0 20 -4 24 -14l14 -3l17 6c27 -5 59 -23 97 -52c44 -33 65 -62 65 -86c0 -10 -3 -18 -11 -26c8 -2 15 -4 23 -6s13 -8 18 -16c-1 -5 0 -17 4 -37c5 -25 8 -43 8 -54c0 -10 -2 -20 -5 -28
c5 -7 6 -18 4 -32zM507 92c-1 7 -4 15 -7 26s-7 23 -11 37c-5 12 -13 27 -27 44c-14 18 -24 34 -31 48c-5 1 -11 2 -20 3s-19 4 -32 7c-26 6 -45 9 -57 9c-19 0 -33 -5 -42 -16c-3 -1 -16 2 -38 7c3 -12 -11 -28 -42 -48c-16 -10 -30 -49 -40 -115c8 -5 29 -8 64 -9
c3 -3 28 -3 76 -1c51 2 82 1 94 -3c0 -5 3 -9 9 -11s11 -2 15 -2c8 0 20 6 36 20h51z" />
    <glyph glyph-name="DISORDER" unicode="&#xe021;" horiz-adv-x="560" 
d="M481 586c-14 0 -30 3 -46 8l-12 -11c-7 -1 -29 -11 -64 -28l-5 -14c3 -5 8 -11 11 -18s7 -16 10 -26h3c16 -43 24 -71 24 -84c0 -9 -1 -18 -3 -27c6 -16 10 -33 10 -53c0 -29 -3 -56 -7 -80s-10 -45 -20 -63l-28 -51l5 -13c14 -5 28 -10 42 -14s29 -8 45 -9
c18 -2 28 -13 30 -36c1 -10 2 -19 2 -28s-1 -18 -1 -28l-8 -12c-9 1 -22 4 -39 9c-18 5 -32 8 -42 8l-12 16c-7 -5 -16 -7 -27 -7l-15 2l-69 40c-28 -20 -56 -35 -83 -43c-5 -1 -16 -5 -31 -8c-23 -5 -23 -5 -60 -13c-11 5 -15 17 -13 36c1 3 1 6 1 9v7c0 2 -2 8 -5 17
l-6 15l2 12c4 0 9 0 17 -1s13 -1 17 -1c8 0 18 3 31 8l23 -10c6 13 18 25 35 35c2 1 7 4 16 9c-5 8 -10 17 -15 28s-11 24 -18 39l-11 7c-5 10 -8 26 -11 46c-3 21 -8 37 -13 47l16 28l-22 9c0 28 3 54 10 77c9 35 23 51 42 47l-19 27l36 69c-24 9 -38 20 -43 34
c-14 -5 -27 -7 -39 -7c-4 0 -9 0 -15 1s-12 3 -20 4c-4 15 -6 38 -6 68c0 9 1 18 3 28c16 3 29 5 41 5c31 0 57 -8 77 -26c14 0 41 -12 81 -36c5 3 21 14 50 32l16 -9l10 21l45 12c20 5 37 8 48 8c10 0 19 -2 29 -6l2 -69v-20c0 -6 -1 -12 -2 -17zM292 445c0 5 -7 16 -21 33
c-20 -36 -29 -71 -29 -104c0 -3 -2 -9 -5 -16s-5 -12 -5 -15c0 -58 13 -105 40 -142c5 8 11 17 18 29s14 25 23 41c-1 7 -2 13 -2 17c0 5 2 13 4 24s3 20 3 25c0 53 -8 88 -26 108z" />
    <glyph glyph-name="FERTILITY" unicode="&#xe022;" horiz-adv-x="654" 
d="M603 17c-5 -12 -19 -16 -40 -15c-14 0 -28 3 -40 8c-8 1 -22 -1 -40 -5c-9 -1 -16 -2 -22 -3s-12 -2 -17 -2c-12 0 -23 3 -34 11c-9 -3 -25 -5 -48 -6c-22 -1 -37 -4 -47 -7c-3 0 -6 1 -11 2s-10 3 -15 5s-10 3 -15 4s-8 2 -10 2c-8 1 -14 -3 -22 -13c-7 5 -15 7 -24 7
c-4 0 -10 0 -18 -2s-15 -3 -19 -3c-10 0 -16 2 -21 6c-11 -7 -23 -10 -37 -10c-10 0 -24 2 -43 7c0 8 4 16 14 26c10 11 16 17 17 20c8 3 17 21 29 52c12 29 22 44 32 45c4 15 17 27 39 35c-5 5 -7 10 -7 15c9 12 17 29 27 49c1 8 8 21 20 37s18 27 19 33l11 10
c-5 5 -12 12 -18 21s-12 19 -19 31c-8 12 -14 22 -19 31s-10 16 -15 21c2 10 -1 19 -11 24c-13 8 -21 13 -24 18c-20 36 -30 63 -29 81c-2 3 -4 4 -6 4c-3 -4 -9 -8 -17 -11l-31 57c-11 20 -25 34 -41 39c-1 4 -2 7 -2 9c0 5 3 8 11 8h18c31 -12 62 -18 95 -19
c14 0 28 1 42 3c3 2 7 1 12 -4l7 -8c1 0 4 1 6 3c7 -2 17 -1 33 3c14 5 25 7 33 7s15 -3 22 -8c8 2 15 3 22 3c11 0 19 -2 24 -7c3 -5 7 -8 10 -8c8 8 18 12 32 15l170 6c11 -1 14 -8 11 -22c-12 -5 -27 -24 -46 -55c-20 -31 -35 -49 -46 -54l-24 -56
c-5 -10 -11 -19 -17 -27s-12 -13 -19 -18c-1 -4 -11 -19 -29 -46c-14 -22 -22 -39 -22 -50c0 -10 5 -19 13 -28c5 -2 10 -13 14 -32s10 -30 19 -33c1 -1 7 -1 17 -1c5 1 10 -1 13 -7c2 -8 12 -24 30 -49c15 -21 22 -39 21 -54c17 -4 31 -15 41 -33l30 -49zM426 547
c-10 2 -25 2 -45 0c-11 -1 -20 -2 -27 -3s-13 -1 -18 -1c-7 1 -14 1 -20 2s-13 3 -19 6l-36 -7c-6 7 -11 10 -15 10c-3 0 -4 -1 -5 -3c1 -11 7 -23 19 -36c14 -16 23 -27 24 -32c1 -11 7 -24 19 -38c8 -10 14 -17 19 -23s8 -9 9 -12c9 0 17 7 25 22c10 19 19 32 25 37
c12 5 22 17 30 33zM430 91c-9 16 -17 30 -24 42s-14 22 -19 30c-20 29 -38 49 -55 60c-3 -3 -8 -8 -14 -16s-13 -18 -22 -32c-14 -21 -28 -31 -42 -30c5 -3 8 -8 8 -14c0 -5 -3 -15 -8 -27c-1 1 -3 2 -5 2c-8 0 -12 -4 -12 -12c0 -5 2 -8 6 -11c4 -1 9 0 17 2
c11 -5 26 -7 44 -5c3 1 7 1 10 1h10c9 0 16 -1 21 -3c16 10 45 14 85 13z" />
    <glyph glyph-name="DEATH" unicode="&#xe023;" horiz-adv-x="485" 
d="M175 3c3 15 4 30 3 45l4 38l16 35l-16 -6v24c-1 1 -2 9 -3 21c-1 9 0 16 5 24l-7 33c1 14 3 31 4 51s2 43 3 70c0 5 2 11 4 20s3 16 3 21c0 7 -2 13 -6 18l-12 -3c-4 -1 -9 -2 -15 -4s-13 -4 -21 -6c-3 0 -10 2 -20 6s-18 6 -23 6c-13 0 -24 -5 -33 -15h-5
c-2 -1 -6 0 -11 2l-5 2l4 18c-3 5 -4 18 -4 38c0 15 1 34 3 57l28 1c8 0 14 -6 22 -16c1 -1 2 0 4 1s4 2 5 2c5 0 10 -3 15 -10c1 3 5 12 14 25c5 0 12 -1 21 -4s17 -4 22 -4c6 0 13 2 20 5l-5 37l-1 106c0 8 1 19 3 31c13 -1 31 -8 52 -21c10 13 28 22 54 25l4 -3
c-2 -17 -2 -40 1 -68c3 -42 2 -73 -5 -95c15 -9 38 -13 68 -13c3 0 7 0 13 1s13 1 19 2s12 1 18 2s11 2 15 2c3 0 6 0 8 -1l5 -1c1 -4 2 -10 2 -15c0 -25 -9 -46 -28 -63l-1 -12c-1 -8 1 -17 9 -27c-8 3 -17 4 -27 4l-22 6c-8 2 -19 3 -32 3s-30 0 -49 -1
c-1 -12 -2 -46 -3 -102c1 -3 1 -8 1 -13s1 -11 0 -18c0 -11 -3 -22 -10 -32c3 -5 4 -11 5 -20s1 -19 2 -32c0 -7 0 -15 -1 -25s-2 -22 -4 -36c-2 -20 -2 -21 -4 -36c-1 -10 -1 -19 -1 -27c0 -6 2 -14 7 -25s7 -18 7 -23s-3 -8 -10 -8l-3 2c-22 8 -36 12 -44 12
c-7 -1 -16 -2 -26 -4s-22 -4 -36 -7z" />
    <glyph glyph-name="MOVEMENT" unicode="&#xe025;" horiz-adv-x="783" 
d="M726 135c-1 -16 -5 -28 -15 -36c-2 -13 -16 -29 -41 -47c-15 -3 -24 -9 -25 -20c-14 -14 -35 -22 -66 -25c-8 -1 -32 -2 -74 -3l-4 5c-1 0 -2 -1 -5 -4s-6 -4 -7 -4c-27 5 -60 27 -99 66c-3 23 -8 34 -17 34c-1 0 -3 -1 -6 -2c-12 12 -22 37 -29 74c-6 32 -19 54 -39 66
c-12 14 -28 20 -50 20c-13 0 -29 -2 -48 -7c-20 -10 -34 -26 -43 -51l-18 -69c8 -14 22 -30 42 -47c1 -4 2 -7 2 -8c0 -4 -2 -10 -6 -17l-7 -16c-3 -1 -7 -5 -11 -9s-10 -10 -15 -17c-11 -13 -20 -19 -29 -19c-34 36 -51 62 -51 76c0 8 1 15 4 21h-16c-1 11 -1 21 -1 31v28
c0 33 2 56 6 70l16 7c-4 3 -6 7 -6 11c0 1 3 5 11 15c8 9 11 17 10 22c3 -1 7 0 12 6s8 9 9 9l6 -2c12 33 48 52 111 57c1 -8 5 -18 10 -31c3 9 9 19 21 31c3 1 7 1 13 1c4 0 10 0 16 -2s13 -4 20 -6s14 -4 19 -6s10 -2 13 -2l29 -21c30 8 50 29 60 62l27 86c3 8 0 20 -8 34
c-8 18 -11 28 -12 32c-38 24 -74 35 -109 32c-3 -5 -15 -11 -35 -19c-20 -9 -32 -17 -35 -25c-3 1 -12 9 -26 25c-12 15 -23 22 -33 22c-5 2 -8 5 -8 9c1 1 2 5 4 9s5 9 8 15c8 7 17 14 28 21s24 15 38 23c12 7 27 12 43 15c5 5 10 8 15 8c4 0 10 -3 19 -7s16 -7 20 -7
c3 0 7 1 11 2l9 -7c5 8 12 11 20 11c4 0 11 -1 20 -5s15 -6 19 -6l39 -24c14 -11 21 -23 20 -37c14 -4 26 -17 34 -38c13 -33 20 -52 22 -55c-3 -3 -5 -7 -5 -12c0 -3 3 -14 10 -32c1 -20 -14 -57 -43 -111c0 -2 -1 -4 -3 -7s-6 -5 -9 -7s-6 -5 -8 -6c-4 -2 -3 -2 -3 -2
c0 -2 1 -4 4 -7c-3 -12 -15 -29 -35 -53s-31 -41 -31 -53c0 -8 1 -16 4 -22l22 -39c9 -16 20 -26 32 -31c3 -2 12 -5 28 -6c12 -3 20 -8 23 -13l-4 -3c4 -3 7 -4 10 -3c3 9 15 18 34 27c20 10 31 18 34 26c8 15 12 31 12 48c0 31 -10 58 -29 81c1 8 7 17 17 27l25 22
c0 8 4 18 13 31c27 -18 48 -42 62 -73s19 -63 14 -96z" />
    <glyph glyph-name="TRUTH" unicode="&#xe026;" horiz-adv-x="694" 
d="M526 530c1 -3 -14 -29 -47 -79l-58 -90c0 -14 -2 -37 -6 -68c12 -16 19 -46 20 -91v-25c0 -9 0 -17 -1 -27l-2 -46l-11 -9c-3 -11 -1 -20 7 -29l14 -70c-18 3 -46 9 -81 20c-15 -5 -27 -9 -37 -14l-10 10c1 14 5 38 10 70c-10 33 -15 58 -15 76s4 32 12 44c8 1 12 4 13 9
c2 4 1 8 -2 11l-1 2v1c-1 4 -1 14 2 30l-19 -5c-1 14 -2 29 -3 45s-1 34 -1 53c-18 26 -38 50 -58 70l-91 93c-18 18 -33 36 -45 53s-23 34 -33 50l-26 24c-1 3 -5 8 -11 14s-16 15 -27 27c-16 16 -22 24 -19 24c22 1 36 1 44 0c21 -1 38 -8 52 -21c22 9 38 13 50 13
c20 0 36 -16 48 -49c18 -15 39 -37 62 -66c-1 -7 -2 -12 -2 -14c0 -20 12 -29 37 -29c2 0 8 -5 18 -13l3 2h9c5 -8 10 -15 14 -22s8 -14 11 -21c38 17 75 51 111 102c6 9 13 19 22 31c8 10 17 24 28 39s24 34 40 55h36c8 0 14 -1 21 -3s14 -5 20 -8c27 6 49 9 66 7
c-6 -10 -15 -23 -28 -39s-30 -36 -50 -58c-44 -50 -73 -76 -86 -79z" />
    <glyph glyph-name="ILLUSION" unicode="&#xe027;" horiz-adv-x="579" 
d="M382 396c0 -17 -1 -26 -2 -29c-1 -12 -5 -22 -10 -29c-1 -1 -3 -2 -6 -4s-8 -5 -13 -10c-8 -6 -13 -10 -17 -10c-3 0 -6 1 -11 3l-2 1c-3 0 -6 -1 -6 -3l2 -3c-3 -5 -8 -8 -15 -9c-10 -1 -16 -2 -17 -3c-8 1 -16 3 -23 6c-16 5 -27 12 -35 17c-2 7 -9 15 -23 27
c-1 5 -3 12 -4 20s-3 17 -4 27c0 12 3 21 10 26c3 -1 8 -1 16 1c0 1 -2 4 -7 9s-6 10 -5 13l14 16l8 6c5 3 13 5 22 7s20 4 32 7c5 1 10 0 17 -1l2 -4v-9s-1 -8 -2 -13c3 -1 6 2 10 9c5 8 10 10 13 8c3 -3 7 -6 12 -11s10 -11 16 -16c13 -12 19 -22 16 -30
c-3 -5 -4 -8 -4 -7c11 0 16 -4 16 -12zM525 56c-2 -5 -6 -12 -14 -23c-8 -3 -18 -12 -32 -25c-3 -3 -17 -6 -40 -7c-8 0 -19 3 -33 8c-5 -1 -10 -2 -12 -2c-9 0 -21 11 -36 32c-3 3 -4 6 -4 10c3 6 4 14 5 24c-5 0 -10 2 -16 6c-1 29 2 47 11 57c3 10 14 21 33 35
c13 15 30 21 52 18c5 -1 8 -2 7 -3c1 4 6 5 12 2c20 -8 32 -18 37 -31v-8s1 -7 2 -10c1 0 4 1 7 3s6 2 9 1c10 -9 15 -24 16 -44c0 -1 0 -5 -1 -12s-2 -18 -3 -31zM231 114c0 -18 -7 -32 -22 -41c2 -3 2 -3 5 -8c2 -3 4 -7 5 -11c0 -1 -1 -2 -2 -5c-2 -1 -5 -4 -8 -8
s-7 -8 -12 -15c-7 -10 -15 -16 -24 -17c-12 -8 -25 -10 -39 -7c-2 3 -7 6 -17 9c-9 3 -14 6 -15 9c-2 5 -2 5 -5 14c-1 -1 -1 -3 -3 -6s-4 -7 -7 -10c-5 1 -15 12 -27 30c-6 17 -8 29 -7 34c9 9 14 15 13 20c-1 3 -4 6 -5 6s-5 -3 -10 -6c-3 -1 -5 -1 -5 2s0 7 1 8l15 41
c5 12 14 21 26 26c5 2 5 2 13 5c5 2 11 4 19 5c4 0 8 -2 12 -7c3 -8 6 -12 10 -13c0 13 4 20 10 21c1 -1 4 -2 8 -3s9 -4 15 -7c31 -23 50 -45 56 -66z" />
    <glyph glyph-name="MAN" unicode="&#xe028;" horiz-adv-x="680" 
d="M630 298c-9 -13 -24 -18 -46 -17c-6 6 -14 11 -24 15l-11 -8l-40 -3c-9 -1 -17 0 -23 1s-11 3 -16 5c-29 -5 -58 -5 -87 0c-2 -4 -5 -15 -9 -33s-6 -29 -6 -33c0 -10 14 -18 42 -26c33 -8 51 -16 56 -25c0 -8 -1 -14 -3 -20l5 -11c5 1 11 3 17 4s13 4 19 7
c3 -3 8 -8 13 -11s12 -7 20 -10c5 -11 16 -25 35 -42c11 -11 19 -23 23 -37c5 -18 10 -31 15 -39l-9 -10c-6 3 -14 3 -24 2c-14 -2 -22 -3 -25 -3c-14 0 -23 9 -27 27c-2 8 -15 22 -39 43c-14 12 -23 21 -31 29s-13 15 -16 18c-64 12 -97 17 -98 17c-5 0 -12 0 -19 -1
s-14 -3 -22 -4l-24 -3s-13 -2 -18 -2h-8c-3 0 -5 0 -8 1c-3 -1 -1 -6 4 -17c-3 -2 -9 -6 -15 -11s-14 -11 -24 -19c-14 -12 -28 -21 -42 -26l8 -15c-3 -13 -7 -25 -12 -36l-19 -2c-6 0 -14 1 -25 2s-21 2 -29 1c-1 5 -2 9 -2 10c-1 1 -1 3 -1 4c0 23 7 45 21 65
c3 5 9 12 17 20l29 29l23 -5c3 10 9 20 18 30s20 17 36 24l72 31l1 71c-7 5 -22 7 -46 7c-1 0 -5 -1 -9 -1s-10 0 -18 -1c-5 -1 -8 -1 -12 -1s-8 1 -11 2c-8 1 -17 4 -26 11c-16 -10 -34 -14 -54 -14h-13s-11 1 -18 2c-8 1 -14 1 -19 1s-8 1 -11 1l-7 15l2 -1l2 6
c0 5 -2 12 -5 21s-5 16 -6 19c5 7 18 10 40 10c38 0 64 -8 80 -26c8 10 16 18 25 25l18 -3c4 0 9 0 15 1s13 2 19 3c10 2 10 1 20 3c6 1 12 2 16 2c-7 6 -14 13 -21 19s-14 13 -20 21s-11 15 -15 24s-6 19 -6 30v5c9 2 17 5 22 9c-9 0 -16 3 -20 11c10 34 26 59 49 75l6 -2
c14 16 33 24 60 24c31 0 56 -10 76 -28c1 -3 1 -7 2 -11s1 -9 2 -14c15 -13 23 -22 26 -27c6 -10 10 -22 10 -38c0 -28 -5 -46 -15 -56c-18 -18 -28 -29 -29 -31l-15 -7c4 -1 17 -2 39 -2c14 0 28 -9 40 -27c1 9 7 17 17 25h15c31 0 52 -4 62 -12c11 7 31 12 59 14v-30
s1 -25 2 -41zM335 515c-6 0 -12 -2 -18 -5s-11 -7 -16 -12s-9 -10 -12 -16s-4 -12 -4 -18c0 -5 3 -9 8 -11c3 -12 11 -22 26 -28c19 -8 31 -13 35 -16v2c0 6 6 13 16 21c11 8 16 16 16 21c0 27 -5 43 -15 49c-15 9 -27 13 -36 13z" />
    <glyph glyph-name="BEAST" unicode="&#xe029;" horiz-adv-x="809" 
d="M759 610c-7 -12 -15 -27 -24 -45s-20 -40 -32 -66c-3 -1 -6 -2 -9 -2s-6 -1 -9 -2c2 -8 -9 -37 -34 -88c-10 -21 -18 -40 -26 -55s-16 -28 -21 -38c-12 -5 -25 -26 -40 -63c-14 -33 -27 -49 -38 -46l-6 -8c0 -4 1 -8 1 -11v-7c0 -3 0 -4 1 -5c0 -1 -13 -21 -40 -61
c-5 -8 -11 -19 -19 -35s-16 -36 -26 -59c-6 -14 -15 -20 -28 -18c-3 12 -14 28 -30 51s-25 41 -26 53c-16 5 -21 16 -18 32c3 20 3 32 -1 37c1 19 -2 32 -7 39l-4 -19c-3 -9 -8 -14 -13 -14c-30 32 -44 60 -42 85c-20 15 -39 35 -57 60s-35 54 -53 87l-56 103
c-34 63 -51 95 -51 96c1 1 2 3 2 5s1 5 2 7c10 1 22 -2 36 -10c14 14 38 21 71 18c2 -1 35 -1 101 0c46 0 78 -5 96 -14l12 11l93 1c5 0 12 0 21 1s16 2 19 2c18 0 31 -11 39 -32c5 1 14 10 28 27l82 -1c3 -4 7 -7 10 -8c2 0 7 3 15 7c6 3 11 4 15 3c4 0 11 0 20 1
s16 1 19 1c17 0 26 -7 27 -20zM567 551c-12 1 -27 5 -45 13c-20 -8 -53 -11 -97 -11c-35 0 -55 3 -61 11l-17 20c-12 -16 -28 -26 -48 -30c-8 -3 -27 -4 -57 -5c4 -5 11 -12 22 -18s18 -11 21 -16c17 -4 36 -14 57 -28l54 -34c3 -2 12 -1 24 4s20 7 25 7c3 0 7 0 8 -1
c2 10 13 21 35 33c23 11 35 19 38 26c5 3 12 7 19 12s14 10 22 17zM588 459c-10 -8 -25 -17 -46 -28c-9 5 -17 7 -22 5c-2 -10 -16 -24 -42 -42s-38 -31 -37 -41c4 -24 6 -34 6 -31c0 -9 -3 -16 -11 -19c13 -3 20 -10 20 -23v-11c-1 -3 -1 -7 -1 -11c0 -6 2 -12 5 -17
c8 10 21 25 41 45c-1 3 -2 5 -2 7v7c0 12 5 24 15 38c6 1 12 7 17 19c3 6 6 12 8 15l6 9l6 9s6 7 9 12l-1 8c8 5 17 22 29 49zM381 234c1 8 1 15 -2 23c5 10 8 19 8 29c0 9 -3 22 -11 39s-11 28 -11 36c0 7 1 14 4 19c-9 -1 -17 2 -25 10s-14 17 -20 25c-14 3 -32 11 -52 27
c-23 20 -38 31 -47 34c7 -17 21 -42 44 -73c-1 -3 -1 -6 -3 -10s-5 -9 -8 -14h11c17 -10 39 -37 65 -79s40 -65 43 -67z" />
    <glyph glyph-name="INFINITY" unicode="&#xe030;" horiz-adv-x="835" 
d="M785 175c1 -2 1 -6 1 -11c0 -10 -3 -24 -10 -40s-10 -29 -10 -39c-1 -4 -10 -9 -25 -15c-14 -6 -21 -12 -21 -16c0 -3 1 -5 3 -8c-4 -5 -11 -11 -22 -17s-18 -11 -21 -14c-15 -5 -52 -8 -109 -10c-1 0 -3 3 -6 8s-7 9 -10 9c-1 0 -5 -2 -9 -4s-7 -4 -10 -4s-12 4 -24 10
c-12 8 -20 10 -24 9c-7 5 -15 11 -24 19s-19 19 -31 32c-15 0 -21 0 -19 1l-21 -24s-14 -15 -22 -23c-19 -17 -40 -27 -60 -28c-5 0 -12 -1 -22 -3s-17 -4 -22 -4c-10 0 -16 2 -21 7l-21 -7c-4 -1 -7 -2 -9 -2c-4 0 -7 1 -10 4c-15 5 -27 8 -35 11s-13 6 -16 7
c-18 8 -32 19 -40 33c-22 18 -33 33 -33 47c-6 0 -14 6 -24 18c-4 25 -6 46 -6 62c0 17 2 29 6 37c8 29 26 52 51 70c1 -1 3 -1 6 -2s6 -1 9 -2c1 3 2 4 2 5c0 2 -1 6 -3 10s-2 7 -2 10s29 19 88 47l94 -7l14 -14c6 -6 12 -9 15 -9c4 0 7 0 9 1c23 -12 48 -39 77 -83
c8 -1 19 7 31 23l28 39c10 14 24 22 41 22c1 0 4 -1 7 -1s7 0 10 -1c4 -1 8 -1 11 2s5 7 4 11c29 10 49 14 63 14s27 -3 39 -9c2 1 5 1 8 1c8 0 17 -3 26 -10l3 -25c18 2 30 3 34 2c12 -9 22 -18 29 -30l25 -40c3 -5 4 -17 2 -35s0 -29 6 -34zM703 152c-1 3 -4 8 -9 16
c1 25 -3 46 -15 64s-29 28 -53 28c-15 0 -40 -5 -73 -15c-7 -10 -19 -23 -37 -39c-19 -17 -31 -30 -36 -40c2 -7 10 -15 23 -23s20 -14 22 -18c3 -4 14 -12 30 -23c17 -11 28 -20 32 -30c5 3 12 6 22 8l25 5c18 13 28 21 29 23c11 8 15 17 14 30c5 9 13 14 26 14zM371 159
c1 4 2 6 2 7c0 3 -3 7 -8 12s-9 9 -10 11c-3 3 -7 7 -12 11s-11 10 -17 18c-11 14 -20 23 -27 28c-18 -1 -38 8 -61 30c-4 -7 -15 -15 -32 -25c-17 -9 -28 -17 -31 -24c-10 -3 -21 -19 -33 -47l2 -22c2 -10 8 -15 17 -15c8 -15 12 -24 15 -28c8 -10 17 -15 29 -16
c3 1 10 -3 22 -11c11 -8 18 -12 21 -12s8 2 13 6c30 6 67 32 110 77z" />
    <glyph glyph-name="MASTERY" unicode="&#xe031;" horiz-adv-x="796" 
d="M718 28c-14 -16 -28 -24 -43 -24c-10 0 -24 1 -41 3c-10 1 -18 2 -25 3s-13 1 -17 1c-25 1 -44 10 -58 26c-15 -8 -38 -17 -69 -28c-14 -2 -32 -1 -53 4c-24 5 -42 7 -53 7c-2 3 -5 6 -10 6c-2 0 -7 -3 -14 -6s-13 -5 -16 -5c-2 0 -5 1 -9 2c-7 -7 -15 -9 -27 -8l-31 3
c-13 9 -23 21 -30 36c-9 -21 -16 -32 -23 -31c-5 -1 -10 -1 -15 -1s-10 -1 -15 -1s-11 0 -19 1s-18 2 -30 3c-23 2 -39 4 -49 3c-6 3 -10 7 -10 12c0 3 2 9 4 17s4 15 3 19c-1 35 1 87 6 157c2 4 5 8 9 11s10 4 14 6s8 4 12 5s6 2 6 3c-3 3 -7 4 -11 4c-2 0 -5 -1 -10 -2
s-8 -1 -11 -1c-4 0 -8 2 -11 5c-1 5 0 27 2 64c2 25 1 45 -3 63v35c0 15 4 26 12 34c1 1 1 2 1 5s-2 7 -6 13s-6 8 -6 9c0 56 3 95 11 115c-8 10 -11 23 -11 39v28c0 7 0 11 -1 14c2 7 6 10 11 10c4 0 8 -1 11 -4c5 -8 13 -12 25 -12c11 0 22 4 34 12c3 -1 8 0 15 2
s11 3 14 3c5 0 10 -2 13 -6c1 -10 2 -22 2 -36s1 -31 0 -49c-1 -23 -2 -41 -2 -55s0 -25 1 -32c0 -3 -1 -8 -2 -13s-3 -11 -5 -16s-4 -11 -5 -16s-2 -8 -2 -11c0 -10 5 -19 13 -26c1 -7 2 -12 2 -16s-1 -10 -2 -17s-3 -14 -5 -21s-4 -14 -5 -20s-2 -12 -2 -16
c0 -3 1 -6 1 -9s0 -7 1 -10c-1 0 -3 -4 -5 -14l11 -7c0 -27 6 -67 16 -119c-4 -22 -6 -30 -6 -27c0 -7 3 -13 9 -18c10 2 20 3 28 3c14 0 24 -3 32 -8c1 0 3 -4 7 -14c4 -9 9 -14 13 -14c1 9 8 16 20 21c14 6 21 12 21 20c-3 6 -4 14 -4 22c0 6 1 14 3 26s3 21 3 27
c0 5 0 14 -1 25s-1 20 -1 26c0 20 7 38 23 54c-12 5 -17 11 -16 16c-1 3 -1 7 0 12s1 11 1 19c1 25 -2 43 -10 54c2 6 15 23 39 51c3 0 8 0 15 -2s16 -5 26 -8c16 -6 30 -8 41 -5c6 -7 9 -19 8 -36c-1 -23 -1 -36 1 -40c-1 -1 -1 -3 -1 -6s0 -7 1 -13s2 -11 2 -14
c0 -5 -2 -10 -7 -15c-12 3 -19 5 -20 5c1 -6 1 -12 2 -16s1 -8 2 -11c3 -12 8 -18 16 -21c1 -7 2 -14 2 -21s0 -14 -1 -22l-4 -43c-6 -4 -10 -10 -10 -16c0 -2 3 -7 7 -16s7 -15 7 -20c0 -3 0 -6 -1 -7c1 -1 9 -3 27 -4l10 -2c7 -1 15 -4 25 -7s20 -8 32 -14c1 1 8 5 22 10
c13 5 22 10 25 17c0 7 -1 18 -2 31s-1 23 -1 30c0 33 8 58 26 72l4 11c-4 -5 -10 -7 -18 -5c-10 2 -12 7 -9 15c3 12 5 25 5 39c0 7 0 17 -1 31s-2 24 -2 31c0 21 3 39 9 53c-5 12 -8 23 -8 35c0 14 4 30 14 45c-8 8 -13 23 -14 47c-1 14 -2 24 -3 33s-3 15 -4 18l7 26
c3 11 7 19 15 22c5 -2 12 -2 20 0c11 2 16 3 17 3c8 0 14 -3 18 -8c19 8 29 11 30 11c3 0 9 -2 14 -5l7 -9v-98c-6 -5 -8 -11 -7 -21c8 -6 12 -14 12 -24c0 -2 -1 -5 -2 -10l-3 -15s-3 -11 -4 -16s-1 -10 -1 -13c-10 -3 -24 -14 -42 -31c6 2 12 0 20 -6c5 -3 10 -5 13 -7
s6 -3 7 -4c4 -18 6 -39 6 -63c0 -8 0 -19 -1 -31s-2 -27 -3 -43s-3 -30 -3 -42s0 -23 1 -31c4 -10 6 -20 6 -30c0 -14 -5 -34 -14 -60c12 -33 17 -67 15 -100z" />
    <glyph glyph-name="PLANT" unicode="&#xe02a;" horiz-adv-x="645" 
d="M374 186c0 -44 -7 -79 -21 -108h11c5 -7 7 -17 7 -30c0 -10 -1 -21 -3 -33l-43 -9c-16 -4 -31 -5 -44 -4c-10 9 -16 22 -16 40c-1 12 -1 21 -1 28s-1 12 -2 15c10 3 14 8 14 14c0 3 -1 8 -5 15s-6 12 -6 14c1 3 1 5 1 8v9c0 7 0 18 -2 31s-3 23 -3 29c0 18 6 32 17 41
c-10 13 -16 30 -17 52v18c0 9 0 21 1 36l11 7c-10 9 -15 20 -15 34c0 5 1 12 3 23s2 18 2 23c0 8 0 14 -1 17c-3 14 -5 23 -5 31c0 14 4 25 12 33c12 -8 23 -12 33 -12c5 0 14 3 25 7s20 6 26 6c5 0 9 0 11 -1c0 -3 2 -16 6 -37c1 -9 2 -16 2 -22s1 -11 0 -14
c-2 -5 -4 -10 -7 -14s-9 -9 -17 -13l20 -17c-1 -5 -2 -10 -2 -15c0 -4 0 -9 1 -16s1 -14 2 -22s2 -14 3 -21s2 -13 2 -17c0 -12 -2 -21 -6 -29c4 -40 6 -73 6 -97zM565 412c-35 -12 -53 -19 -56 -19c-15 0 -42 6 -80 18c1 8 -2 21 -10 39s-4 50 10 97c9 8 23 15 43 23
s36 13 48 13c14 0 29 -15 46 -45l22 -38c-1 -8 -1 -15 -2 -20s-2 -10 -3 -14l12 -2c-8 -23 -18 -40 -30 -52zM347 568l-1 -1c3 -3 3 -4 1 -5c-1 -1 -14 -2 -38 -4c-33 10 -58 23 -76 37h-12l10 90c5 7 11 14 16 21s11 13 16 20c14 17 27 26 39 26c5 0 11 -3 18 -6
s11 -5 12 -5h8c4 1 4 1 6 2h4c7 0 15 -4 23 -12c9 -1 17 -6 25 -15s13 -18 13 -26c0 -10 -4 -25 -10 -46s-11 -35 -16 -42c-3 -1 -6 -4 -10 -6s-10 -4 -15 -7c-1 -1 -5 -10 -11 -24zM51 430v48c0 18 3 32 10 44c20 35 45 52 72 52c5 0 12 -1 22 -4s18 -5 24 -4
c15 -10 29 -29 43 -58v-19s-1 -21 -2 -37c-4 -5 -9 -11 -14 -15l11 -15l-29 -5c-31 -22 -52 -33 -63 -33c-4 0 -14 4 -29 12c-14 8 -24 13 -30 14c-5 5 -5 9 0 13zM521 511c-4 5 -12 8 -26 8c-5 0 -10 -3 -15 -10l-12 -15l-4 -33h4c11 -10 21 -16 30 -16c3 0 6 0 9 1h3l1 1
c3 7 8 13 15 16c6 9 10 20 10 32c0 11 -5 16 -15 16zM331 689c-2 -1 -5 0 -9 1s-8 2 -9 2c-12 0 -20 -6 -27 -19c-1 -1 -2 -13 -3 -36c1 -2 3 -4 4 -7c20 -7 27 -10 23 -10c3 0 9 2 16 7s13 7 18 7l-4 6c3 1 5 2 6 5c1 5 1 10 1 14v8c0 8 -5 15 -16 22zM165 470l2 15
c-8 14 -14 25 -19 31c-1 1 -4 2 -7 2c-17 0 -28 -4 -33 -14c-8 -15 -10 -27 -6 -37c3 -5 5 -10 6 -15c21 -7 38 -7 51 0c3 3 7 8 10 18h-4z" />
    <glyph glyph-name="SPIRIT" unicode="&#xe02b;" horiz-adv-x="586" 
d="M539 3c-14 -3 -27 0 -38 9c-5 -3 -11 -6 -17 -8s-12 -5 -19 -6c-29 10 -52 30 -68 60l1 16c-29 14 -45 22 -50 27c-6 6 -18 23 -36 50l-7 2l-18 -21c-6 -6 -14 -11 -24 -14c-15 -18 -30 -27 -44 -26l2 -20c-10 -8 -18 -16 -24 -24s-12 -15 -15 -23l-14 -6
c-8 -12 -38 -18 -90 -18c-33 0 -50 3 -52 11c3 7 7 14 14 21c11 10 17 16 18 18c11 3 22 17 33 40c19 -3 42 11 67 42c29 37 51 58 66 63l12 17c-5 13 -13 21 -24 24c-12 23 -28 42 -51 59c-18 13 -34 38 -46 73c-8 -5 -15 -10 -23 -12c-5 5 -8 11 -11 15s-5 7 -6 8
c-3 3 -7 7 -11 10s-8 5 -13 6c-4 16 8 42 36 76c29 35 51 51 67 49l2 23c15 7 54 52 117 135c8 5 18 5 28 2c1 -1 12 -12 35 -34c14 -13 20 -27 19 -43c14 -8 29 -21 44 -37l40 -45l2 -15c31 -8 64 -36 95 -86c-1 -14 -3 -23 -4 -27c-2 -9 -6 -16 -11 -23
c-8 -1 -15 -8 -23 -18c-9 -10 -19 -15 -31 -16c0 -12 -14 -31 -41 -56l-58 -53c13 -29 43 -64 89 -106c25 -22 46 -42 61 -59s26 -32 33 -44zM397 450c-5 -1 -9 2 -14 9c-7 1 -14 8 -21 21l-16 29c-7 1 -26 15 -59 43l-8 -5c-5 -14 -19 -31 -40 -51c-10 3 -22 0 -34 -7
c2 -6 3 -12 3 -17c0 -10 -6 -22 -18 -36c-11 -12 -16 -20 -16 -28c0 -7 4 -16 14 -27c2 -7 8 -16 16 -26l7 3l35 -33c19 -18 28 -29 29 -34l10 -5l10 1c7 13 22 28 46 46c3 -3 7 -5 10 -6c1 1 3 2 5 5c4 4 4 4 11 12c8 8 13 12 16 11c1 1 4 5 8 10s8 11 13 20
c11 17 18 29 19 34z" />
    <glyph glyph-name="CHAOS" unicode="&#xe02c;" horiz-adv-x="740" 
d="M689 510c0 -5 -2 -12 -6 -19s-6 -12 -6 -15c0 -1 1 -6 3 -15c2 -10 3 -16 3 -17c0 -10 -4 -23 -13 -40c-8 -17 -17 -28 -26 -35c1 -3 2 -7 2 -9v-7c0 -23 -21 -51 -65 -82c1 -10 2 -18 3 -27s2 -18 2 -26c0 -30 -6 -52 -18 -68c-6 -2 -11 -4 -16 -4c1 0 -16 5 -51 13
c0 -5 10 -13 30 -22c1 3 4 5 7 7c18 -1 27 -8 27 -22c0 -18 -15 -41 -46 -66c-30 -25 -56 -38 -77 -38c-9 0 -15 4 -18 9c-6 10 -10 16 -12 18c-3 -5 -4 -20 -4 -44h-58c-2 0 -8 2 -18 6c-17 7 -18 7 -18 7l-17 15h-12c-4 0 -10 0 -17 1c-20 7 -39 21 -57 44s-29 44 -32 63
c-2 12 -3 18 -3 17v19c3 1 6 1 10 2s7 4 7 10h-26l2 1c-1 14 -2 24 -2 30s0 6 0 3c0 18 2 39 6 62c-34 24 -62 54 -83 91c-20 36 -30 70 -30 101c0 20 5 37 13 53c-14 7 -22 17 -22 30c0 12 6 28 18 50c9 0 19 1 33 3c21 4 30 6 27 6h18c8 -4 12 -14 12 -31
c0 -9 -3 -29 -8 -58c-3 -14 -5 -24 -6 -33s-2 -15 -2 -18c0 -5 7 -13 19 -26c3 -8 5 -16 8 -23s6 -14 9 -22c7 -17 19 -32 37 -44c4 8 13 19 27 33s25 22 33 22h15c5 -4 9 -10 12 -19s5 -16 8 -24h1c5 8 10 15 14 23l12 24c8 10 20 14 37 14c3 0 9 0 19 -1s23 -3 40 -6
c1 -8 5 -16 13 -23s15 -11 21 -11c1 0 3 1 6 3s6 2 7 2c3 0 10 -4 22 -14s19 -14 24 -14c3 0 10 6 18 20c5 10 11 23 18 40s15 36 25 59v4c0 2 0 5 1 8c-8 8 -14 23 -17 47c-3 25 -9 42 -17 50c0 3 0 5 1 6v4c5 2 9 3 13 3c1 0 11 -2 31 -6c19 -4 30 -6 32 -6
c-1 0 12 4 39 14c1 -5 3 -12 5 -23s4 -24 5 -41c0 -5 1 -12 4 -22s4 -15 4 -16z" />
    <glyph glyph-name="MAGIC" unicode="&#xe032;" horiz-adv-x="527" 
d="M525 17l-3 -16c-5 -5 -10 -6 -18 -4c-5 1 -9 1 -12 2s-6 1 -7 2c-9 0 -20 3 -35 9c-4 -3 -13 -5 -26 -6c-14 -1 -22 -3 -24 -5c-11 -2 -24 10 -40 36c-1 4 -2 8 -1 11c1 1 1 3 1 4s0 3 1 6l-57 37c-1 4 -7 12 -18 22c-8 9 -13 16 -13 24c0 3 0 6 1 8c-2 3 -6 6 -11 6
c-3 -1 -7 -1 -9 -1h-4c-2 5 -12 13 -30 27c-15 12 -22 23 -22 33c3 6 12 17 27 33c13 14 21 25 23 35c6 5 13 17 22 38s17 34 25 38c0 7 -4 13 -12 16c-3 1 -7 4 -11 8l-14 14c-1 2 -1 4 -1 6c0 3 0 6 1 7c5 5 9 9 10 13c-1 1 -3 2 -4 2c-3 0 -7 -3 -12 -7s-10 -6 -14 -6
c-16 0 -33 5 -48 17c-8 7 -14 10 -18 9c-3 -2 -4 -5 -3 -9c1 -2 1 -4 1 -5s0 -3 1 -4c-5 -10 -8 -22 -7 -35c2 -39 3 -51 3 -36l-1 -95c-5 -1 -11 -4 -16 -8c1 -5 4 -15 12 -28c3 -5 4 -11 5 -18s3 -16 4 -27c1 -14 2 -25 3 -33s1 -13 1 -14c0 -25 1 -47 2 -66s2 -34 3 -46
c1 -5 -2 -9 -7 -10c-1 0 -6 1 -14 2s-20 3 -34 6c-3 1 -6 1 -9 1h-8c-11 0 -21 -3 -30 -10c-1 -1 -2 -1 -5 -1c-4 0 -9 4 -13 14c4 14 8 37 10 68c-5 8 -9 15 -9 23c0 4 1 10 2 18s2 14 2 18c0 5 -1 9 -2 11l-6 110c8 8 12 18 11 31c-1 22 -2 33 -1 34c1 4 2 8 2 11
c0 5 -3 12 -8 21s-7 16 -7 21c0 3 1 7 2 11c-1 16 1 41 6 72c6 0 15 5 25 15c10 11 18 18 21 19c0 1 1 3 3 4c1 1 1 3 0 4c-8 -3 -22 -4 -42 -3c-8 6 -13 16 -12 31c2 21 2 33 0 36v39c0 6 0 4 -1 -4c1 14 6 24 12 29l12 -3c8 -8 18 -16 30 -27s27 -23 45 -37
c1 -1 8 -7 23 -19c12 -10 18 -17 18 -21s-1 -8 -3 -12l3 -3c5 0 11 2 20 4s16 3 20 3c6 0 16 -5 32 -16l40 -28c18 -12 29 -23 34 -32c14 -12 24 -23 27 -35c5 -1 15 -4 30 -5c12 0 20 -4 25 -13c3 -2 4 -5 4 -8c0 -2 -3 -6 -8 -13s-7 -13 -7 -16c-8 -3 -16 -8 -23 -14v-24
c-8 -9 -16 -19 -26 -33s-21 -31 -34 -51c-5 -1 -10 -5 -15 -10c13 -16 26 -31 39 -45s25 -28 37 -41c0 -3 -4 -7 -11 -11s-10 -6 -11 -7l40 -10c11 -1 23 -8 38 -22c17 -16 29 -25 37 -28z" />
    <glyph glyph-name="COMMUNICATION" unicode="&#xe033;" horiz-adv-x="606" 
d="M605 263c-18 -5 -29 -7 -34 -6c-4 3 -9 7 -15 13l-16 -11c-10 -6 -17 -9 -22 -9c-1 0 -4 1 -8 2c-1 -5 -3 -12 -4 -20s-1 -16 0 -26c1 -23 1 -38 0 -46c-2 -1 -5 0 -8 2c-3 -3 -4 -10 -4 -20v-8c0 -3 0 -6 1 -9c1 1 2 3 4 8s5 7 6 7s3 -3 4 -9c1 -5 1 -9 0 -11l-3 -17
c0 -5 0 -12 1 -21s3 -19 4 -31c-1 -1 -4 -2 -9 -3c-9 8 -19 11 -30 11c-5 0 -9 0 -12 -1c-5 -7 -12 -10 -20 -10c-3 0 -9 1 -15 3s-11 2 -14 2l-3 9l2 95c3 2 6 3 10 3c3 0 5 0 6 -1c3 -1 5 -3 8 -4s5 -2 8 -3c1 -1 3 -2 4 -2c-1 7 -6 14 -16 23c-8 1 -14 4 -19 10
c-3 15 -4 38 -3 67c-1 1 -15 4 -42 9l-7 9c-3 -3 -14 -8 -33 -14c-2 2 -11 2 -25 0c-11 -2 -16 2 -17 13c6 7 8 14 7 20c-3 2 -10 0 -19 -6s-15 -9 -18 -8c-2 -5 -6 -11 -11 -19c-3 1 -5 1 -7 1s-5 1 -7 1c-9 0 -16 -3 -23 -8c1 -7 1 -15 1 -26v-39c-5 -1 -7 -3 -7 -8
c0 -1 0 -3 1 -6s1 -5 1 -6c0 -3 -1 -6 -3 -8l2 -17c1 -6 4 -9 9 -10c1 -4 2 -8 2 -11c0 -4 -1 -10 -3 -19s-2 -15 -2 -19c0 -9 2 -16 7 -21c1 -5 -1 -9 -8 -12c-2 -1 -5 0 -8 2s-7 3 -11 5s-7 4 -10 6l-4 3c-3 0 -7 -3 -11 -8c-5 5 -12 5 -22 1c-8 -3 -14 -6 -19 -7
c-5 0 -11 3 -15 11c1 7 3 15 3 24s0 19 -1 31s-2 22 -2 31s-1 17 0 22c2 3 5 5 8 5c1 0 4 -1 7 -3s6 -2 8 -2c1 3 -1 8 -6 16c-5 0 -9 5 -12 13c-5 10 -9 15 -10 16c1 10 0 24 -3 42h-14c1 1 1 4 1 7c0 4 -1 9 -3 15c-10 -8 -23 -15 -40 -24c-3 2 -7 3 -10 3
c-2 0 -6 -1 -11 -3s-9 -2 -11 -2c-4 0 -7 1 -10 4c6 9 9 17 9 24c0 3 0 6 -1 7l-5 4l2 63c3 2 6 2 9 1c5 -2 9 -3 10 -3c2 0 4 2 6 5c1 1 3 1 5 1c3 0 7 -2 11 -7s7 -7 9 -7l8 8c3 2 6 4 8 6s5 3 8 3c2 0 6 0 10 -1s7 -1 9 -1c7 0 13 3 17 7c-3 8 -6 20 -7 37l-3 41
c-1 14 1 27 4 36s7 16 10 20c-9 5 -14 14 -14 28c0 11 2 24 5 40c1 3 3 5 7 4l10 -3c3 2 5 3 8 3c4 0 10 -2 18 -7s14 -7 17 -7c5 0 10 5 14 15c3 1 7 1 10 2s7 3 12 4c1 -3 0 -7 0 -11s0 -10 -1 -15c-1 -14 -1 -23 2 -27c-1 -2 -2 -4 -2 -8s-1 -8 -1 -11s-1 -6 -3 -8
s-4 -2 -8 -1l-3 2c-4 -3 -6 -9 -5 -15v-14c8 3 15 5 18 5s5 -1 7 -3c-2 -28 -4 -68 -6 -121c1 -1 6 0 17 1c8 1 14 0 17 -4c11 4 20 6 30 6c8 0 15 -2 20 -5l108 12l12 -5c-1 4 -2 6 -2 7c0 3 1 9 3 15s4 10 4 13c0 5 -4 10 -9 14c-3 5 -4 11 -4 17c0 5 2 12 5 22s5 17 5 22
c0 3 -1 7 -2 11c5 8 8 14 8 17l-10 6c2 4 3 9 3 15c0 4 -1 11 -2 20s-3 15 -3 19c0 16 9 25 27 27c1 0 4 0 6 -1s4 -1 5 -1c-1 -4 4 -9 16 -13c4 -1 11 1 20 4s16 4 19 4c4 0 7 -1 9 -4c-1 -4 -2 -10 -2 -18s0 -19 1 -31c1 -20 -1 -36 -5 -48c0 -1 1 -3 2 -6s2 -6 1 -9
c-5 -3 -11 -5 -17 -4c1 -4 5 -9 11 -14s10 -9 11 -12c-1 -22 1 -46 5 -72h15s12 -1 18 -2s12 -1 17 -2s9 -1 12 -1c10 0 18 1 23 4c5 -3 7 -7 7 -14c0 -3 -1 -10 -4 -19s-5 -16 -4 -21c-1 -4 0 -10 4 -17s5 -12 5 -14c0 -3 0 -5 -1 -6z" />
    <glyph glyph-name="ETERNAL_BATTLE" unicode="&#xe034;" horiz-adv-x="924" 
d="M865 269l1 -40l7 -47c-3 -8 -5 -15 -7 -21s-4 -13 -6 -18c-8 -20 -14 -30 -20 -33v-1c0 -3 -8 -10 -23 -19s-25 -13 -29 -13h-4c-5 5 -11 19 -19 43c-8 25 -12 41 -12 49c0 10 2 19 8 27s10 14 12 19c8 3 15 14 20 32l-1 9c0 7 1 13 4 19l-27 74c-5 1 -8 8 -10 20
c-1 1 -3 2 -6 4s-7 6 -12 9l-9 -3c-3 1 -7 4 -12 7s-11 6 -17 9l-8 1c-8 1 -15 -2 -20 -11c-8 -12 -14 -20 -17 -23l-43 -95c-22 -48 -38 -77 -48 -85l-52 -110c-5 0 -8 -4 -8 -10c0 -11 -13 -30 -38 -57l-7 -1l-4 4c-16 16 -45 64 -87 144c-21 41 -37 73 -48 97
s-17 41 -18 50c-5 8 -11 18 -17 28s-12 21 -20 34c-13 25 -27 38 -41 39c-2 -1 -5 -3 -9 -7c-5 1 -11 2 -19 2c-4 0 -9 -3 -12 -8c-18 -14 -31 -29 -40 -46c-7 -12 -13 -32 -20 -61c5 -18 6 -31 4 -41c8 -11 22 -26 41 -44c-8 -64 -21 -101 -39 -111c-6 1 -12 4 -18 9
c-15 2 -28 12 -39 28c-11 17 -17 33 -17 48c0 5 0 8 1 10l-9 10l-1 11c1 3 2 15 4 38s3 55 6 99l28 75c0 7 10 19 28 37l35 33c10 5 27 11 50 16h21s19 1 31 2c23 2 41 3 53 3l24 3c13 1 21 1 25 -2l15 6c4 0 10 -2 19 -4s15 -3 19 -3v-3c0 1 1 2 2 3l121 3
c59 1 100 0 124 -3l28 -4l8 4l43 -15l17 4c5 -10 10 -16 14 -19c8 0 13 -3 15 -8c60 -56 90 -117 90 -183zM587 403l-12 -7l-5 12h-136c-7 0 -16 0 -28 -1s-27 -3 -44 -4l-3 -8l-4 4l-5 -1c5 -10 12 -22 20 -36s15 -31 25 -50c7 -18 16 -38 28 -61s25 -48 41 -77l58 107l5 3
l-1 2c0 3 4 9 12 19c2 12 6 25 13 40s13 25 19 31v2c0 10 7 22 19 38l4 -10z" />
    <glyph glyph-name="MAKER" unicode="&#xe035;" horiz-adv-x="818" 
d="M633 234c12 -10 23 -24 33 -43l12 -24c4 -8 8 -16 13 -24c0 -20 13 -43 38 -69c25 -25 37 -46 37 -62v-8h-72c-35 0 -56 3 -64 11c-5 -11 -12 -16 -21 -16c-3 0 -8 1 -15 2s-12 2 -17 2c-3 2 -8 4 -16 5l-17 3c-27 -8 -43 -11 -50 -11s-14 0 -22 1c-7 1 -14 2 -23 2h-28
c-18 0 -46 -1 -81 -3c-18 -1 -33 -2 -47 -3s-25 -1 -35 -1c-20 -1 -47 0 -81 1s-76 3 -126 6c10 16 22 35 35 60s28 55 46 88l33 12l-4 23c5 10 11 19 16 28s9 18 13 26c20 40 33 70 37 90c8 9 15 21 24 35s18 31 28 51c3 5 11 17 25 33c11 12 15 24 14 36c15 9 26 18 31 27
l-6 15c1 3 5 9 9 16s10 16 18 28c11 17 16 33 15 47l24 23c11 -10 22 -29 34 -58c11 -25 24 -44 38 -55l-5 -29c27 -16 44 -41 52 -72c4 -1 16 -18 34 -50c17 -31 29 -46 36 -46c1 -9 7 -24 19 -46c12 -20 17 -37 16 -51zM570 234c-7 25 -14 38 -22 38l-3 -3
c-10 10 -25 31 -44 62c-8 3 -22 24 -41 64c-20 40 -36 63 -50 67c-5 -9 -12 -22 -23 -38s-25 -37 -42 -62c-29 -40 -48 -74 -58 -103c-5 -14 -17 -32 -35 -57s-32 -49 -41 -70c6 5 12 12 20 18s16 12 25 20l29 14c-2 5 -4 11 -6 17c10 9 15 15 18 19c16 3 39 11 70 24
c3 -1 7 -1 13 -1c5 0 12 1 22 2s17 2 22 2c10 0 18 -2 23 -7c9 -3 16 -4 21 -4c1 0 2 1 4 3s5 3 12 3c14 0 38 -18 71 -51c17 -16 31 -31 42 -44s20 -25 25 -35c3 3 -5 23 -25 59c-19 36 -28 57 -27 63zM507 156c-5 1 -13 2 -22 3s-19 4 -31 7c-11 3 -21 6 -30 7
s-16 1 -23 1c-22 -1 -37 -7 -45 -18l-4 -1c-5 0 -13 2 -25 6c-5 -5 -11 -14 -16 -26l-35 -29c-14 -14 -23 -26 -26 -37c5 0 12 -1 24 -3c1 -4 10 -7 26 -7c2 0 5 1 10 2s11 2 16 4s11 3 16 4s9 2 13 2c8 0 17 -1 28 -1s23 0 37 -1s25 -2 35 -2h26l27 -5c9 0 18 4 28 9
c1 1 5 0 14 -1c5 0 9 0 11 1l-16 38c-5 5 -11 10 -17 18s-13 17 -21 29z" />
    <glyph glyph-name="SHARGASH" unicode="&#xe040;" horiz-adv-x="818" 
d="M799 388l-13 -105c-7 -10 -15 -28 -25 -54c-9 -25 -18 -42 -27 -54l-45 -62c-8 -3 -18 -10 -32 -19s-32 -21 -53 -35c-30 -20 -63 -37 -99 -51h-3c-23 0 -40 -3 -51 -8h-87c-10 5 -29 9 -55 13c-25 4 -44 10 -56 16c-10 1 -31 13 -62 37c-10 8 -21 15 -32 23
s-22 16 -34 24c-19 27 -35 51 -48 72s-23 40 -31 56c-20 46 -31 94 -31 147c0 138 70 255 211 351c3 1 10 3 21 6s26 9 46 15c28 9 51 13 69 14l3 3l103 -2c19 -8 40 -12 64 -15l14 -10l19 -1c8 -5 16 -9 23 -10c60 -43 114 -94 160 -153c0 -1 8 -26 26 -75
c16 -43 24 -73 24 -91c0 -3 -1 -7 -2 -11zM556 645c5 -3 9 -4 11 -4c0 3 -10 8 -32 16c-8 1 -19 4 -31 6s-27 6 -43 9l188 -461c1 4 4 7 9 9c4 2 5 2 7 3l3 3s3 3 4 5s4 6 7 11l10 14c13 44 20 87 20 129c0 116 -51 203 -153 260zM406 586c-14 -38 -35 -94 -63 -167
s-63 -163 -106 -272c19 -10 54 -26 107 -49c5 -1 10 -1 14 -1s10 -1 15 -1c26 0 61 5 107 15l58 12c2 5 15 12 40 24zM353 672c-48 -12 -75 -18 -79 -15c-45 -20 -84 -57 -117 -112c-29 -49 -49 -102 -57 -157c3 -5 5 -9 5 -14c0 -3 -1 -8 -2 -13c1 -8 4 -18 7 -30
s7 -25 11 -41l14 -23c6 -10 9 -18 9 -23c0 -2 -1 -4 -2 -7c15 -11 23 -20 23 -26z" />
    <glyph glyph-name="HELER" unicode="&#xe041;" horiz-adv-x="907" 
d="M665 344c-15 -2 -36 -1 -62 2c-21 3 -38 4 -50 3l-6 3l-20 -11l-6 2c-3 -5 -6 -9 -9 -13s-7 -9 -12 -14l-8 5c-3 -37 -22 -82 -54 -135c-48 -77 -74 -119 -77 -126l-21 -5l7 -14l-9 -41l-96 8l-2 7c0 10 10 31 30 63c20 33 35 51 44 55l-6 9l24 44c8 16 20 27 34 33
c-1 20 6 45 22 76c16 29 25 47 25 53c-10 1 -22 3 -34 3s-25 0 -39 -1l-31 -1c-10 -11 -16 -16 -17 -16c-1 -1 -9 -1 -22 0l-22 -5c10 -8 16 -18 19 -30c-5 -16 -19 -36 -40 -61c-20 -25 -34 -45 -41 -59l-88 5c20 33 35 52 45 55l-12 8c2 8 23 41 63 98c-8 1 -17 1 -27 1
s-21 -1 -33 -2l-58 -4l-25 3l22 93l36 -4c4 -10 7 -14 9 -14l2 4c3 1 8 3 13 4s10 3 15 4s11 3 16 4s8 1 11 1c25 -1 56 -1 94 -1s82 -1 133 -1c4 -3 9 -6 12 -9s6 -6 9 -11c1 0 5 3 10 8l2 11c6 7 20 10 40 10c9 1 25 -1 49 -6c29 -5 48 -11 53 -16l53 13
c35 1 63 -4 83 -15c9 7 23 12 42 15s44 3 75 2l21 -1l-1 -77c-7 1 -14 1 -23 2s-18 1 -29 2c-23 -1 -36 -5 -39 -11c-20 -36 -55 -90 -102 -160l-97 -8c21 35 57 90 105 163z" />
    <glyph glyph-name="LIGHTBRINGER" unicode="&#xe042;" horiz-adv-x="569" 
d="M75 478l-8 -4l-13 9c-1 41 6 74 20 97c3 5 8 12 17 23s19 24 33 42l19 -3c16 43 56 65 117 65h8s10 1 18 2h16c5 0 9 0 12 -1c11 -1 20 -4 27 -8l-6 -54c-16 -1 -33 -4 -50 -7s-36 -7 -54 -12l-11 9c-9 -10 -19 -21 -30 -35s-24 -31 -39 -49l-11 -17l-7 -3
c-1 -5 -1 -9 -1 -13s-1 -8 -1 -13c0 -24 4 -47 13 -70c10 -26 16 -40 16 -41c11 -2 25 -12 41 -31c8 -3 18 -7 30 -11s27 -8 43 -13v3c0 8 -2 16 -5 21c-10 -3 -15 -5 -18 -4c-15 7 -36 26 -61 57l-3 19l-13 9c1 10 2 21 3 31s1 21 2 32l-9 8l40 54c8 12 17 20 27 24
s18 5 28 4c10 8 27 15 51 20l19 -12l17 9c61 -18 98 -45 108 -83l-13 -15l21 9c14 -20 21 -48 21 -82c0 -9 -1 -16 -3 -23l-16 -9l2 -10l8 -4c0 -40 -35 -76 -105 -109c6 -5 9 -11 10 -17l13 6c7 -5 15 -11 25 -17s21 -13 33 -21c9 -3 17 -8 25 -14s16 -13 22 -23l32 -51
l-11 -17l20 -5c3 -11 6 -31 9 -60c2 -27 5 -48 10 -61c-15 -8 -34 -11 -58 -11c-12 0 -21 2 -28 5c-6 24 -7 47 -2 67l-7 7c-5 31 -19 58 -39 81s-46 40 -75 50l1 -13l-18 -24l-9 -51l14 20c5 -9 8 -17 8 -26c-1 8 -1 9 -1 4v-35v-32v-19s-1 -11 -1 -16
c-11 -6 -22 -10 -32 -12l-15 7l-22 -6l-11 9c-2 10 -3 23 -4 40s-2 38 -1 63l8 10c1 1 0 4 -1 7s-2 6 -2 7c0 4 0 10 -1 16s-1 12 -1 19s-1 14 -2 20s-1 12 -1 16l-57 -12l3 -12l-29 -32c-10 -12 -22 -21 -35 -24l5 -16c-14 -27 -19 -60 -13 -98l-13 -16
c-6 -1 -12 -1 -17 -1s-10 -1 -14 -1c-13 0 -26 1 -40 4c-1 13 -1 23 -1 31s-1 12 -1 14c0 25 3 47 10 65l10 4c-1 4 -2 8 -2 11c0 18 10 40 30 66c17 23 36 40 56 50l3 -2c12 5 21 10 30 13s16 6 21 7l35 17l-21 3c-33 12 -55 23 -67 35l1 7l-5 -1c-2 -1 -6 -1 -10 -1
s-9 1 -15 2c-9 9 -20 24 -32 44c-12 9 -20 24 -24 46c0 1 -1 6 -2 15s-2 22 -3 39zM368 532l-20 8c1 -7 2 -13 2 -17v-11c0 -18 -3 -30 -8 -37c7 -11 10 -28 10 -51c0 -8 0 -15 -1 -24s-2 -17 -3 -27c3 1 6 3 10 5s9 5 14 8l5 -5c3 11 8 21 13 29s11 15 16 22
c-1 5 1 13 5 22l2 1c-3 5 -5 14 -7 28c-1 4 -3 9 -6 14s-7 9 -10 14s-7 10 -10 14s-4 8 -5 11zM268 528l-5 -5c-2 -1 -4 -3 -6 -5s-5 -6 -8 -9c2 -4 3 -8 3 -13c0 -3 -1 -9 -3 -17s-3 -14 -3 -17c0 -1 3 -6 8 -12s7 -13 6 -19l14 -7v6c10 5 16 10 16 17c0 -1 -1 2 -2 6
c1 0 1 0 2 -1s3 -2 6 -3c-4 -2 -7 -4 -10 -4c-10 0 -13 11 -10 31c1 1 2 3 2 6c0 1 -1 6 -2 14s-3 19 -4 35z" />
    <glyph glyph-name="GOD" unicode="&#xe043;" horiz-adv-x="627" 
d="M657 135c-16 -5 -26 -7 -31 -6c-3 3 -9 7 -15 12c-1 0 -6 -3 -17 -11c-7 -4 -12 -6 -17 -6c-3 0 -6 0 -9 1l-124 -1c-1 1 -13 3 -38 7l-7 9c-3 -3 -13 -8 -31 -13c-1 1 -5 2 -8 2s-6 -1 -11 -2s-9 -1 -11 -1c-5 0 -9 2 -11 5c5 5 6 11 5 17c-3 -3 -7 -5 -11 -8
s-10 -4 -16 -3c-1 -1 -5 -5 -15 -10c-14 3 -25 1 -34 -5c-5 -3 -14 -4 -28 -4c-20 0 -45 3 -77 8l-24 1h-13c2 3 1 7 -2 14c-8 -5 -20 -10 -37 -16c-5 3 -11 3 -18 1s-13 -1 -18 2c1 -2 1 3 1 17c1 6 -2 12 -7 16c-1 1 -2 3 -2 7c0 9 3 24 9 46c3 3 7 4 12 3s9 -1 11 0
c2 -1 8 -3 17 -6c5 -2 10 -2 13 1c4 5 10 8 17 8c2 0 4 0 8 -1s7 -1 9 -1c6 0 11 2 15 6c16 0 38 -4 65 -13c8 -1 15 0 25 3c-18 9 -31 23 -39 41c-21 10 -35 25 -40 47c-10 0 -21 7 -34 20s-22 20 -30 21c-1 3 -3 8 -8 15s-7 13 -7 17c0 2 0 3 2 5s6 7 12 17
c5 8 10 11 17 10c2 5 5 11 7 16s7 8 12 9l9 -1l52 -52c0 -6 4 -11 9 -15c10 1 18 -4 25 -15c9 -16 15 -24 18 -26c1 -4 -1 -10 -3 -16s-4 -11 -4 -14s1 -5 2 -8c2 4 7 6 15 7s12 2 14 3c4 -2 12 -11 23 -25c8 -12 14 -16 19 -15c-3 12 -5 33 -6 62s-2 51 -5 63c0 3 2 7 5 14
s5 13 5 16c0 6 -4 11 -13 14c3 6 4 20 3 43c0 17 4 30 13 40c11 1 24 0 38 -4c18 -5 19 -5 37 -10c5 -29 5 -50 -3 -62h-9c9 -21 14 -50 17 -87c0 -2 -1 -3 -3 -4c-2 0 -4 1 -7 2c-1 -3 1 -7 6 -10s6 -6 5 -11c-4 -33 -5 -52 -3 -55c1 0 4 3 9 8c3 5 9 12 17 19
c6 2 12 4 19 6c8 2 14 1 19 -3s11 -6 18 -6c3 1 4 3 4 4l-4 3c-3 2 -4 4 -4 6c-3 3 -9 7 -17 11c-1 0 -1 0 -2 -1s-2 -2 -3 -2c-5 0 -8 1 -8 2c-2 10 4 19 18 28c16 12 25 21 27 25c2 1 3 3 4 5c5 1 11 3 18 6l-2 11c6 3 15 12 27 28c10 13 19 19 27 19c5 0 11 -3 18 -8
c1 -2 3 -5 6 -9c-3 -2 -2 -8 3 -18c2 -3 8 -8 20 -14c10 -5 14 -10 13 -15c-14 -17 -38 -38 -71 -63c-1 -3 -4 -8 -9 -13c-5 0 -10 3 -14 8c-2 -3 -2 -8 -2 -16s0 -13 -1 -16c-14 -12 -33 -30 -56 -54c-3 -3 -3 -5 -1 -6c3 0 8 1 17 4c12 -1 21 -3 27 -6s12 -4 17 -5
c5 5 23 10 54 13c8 -3 34 -4 79 -2c5 -3 7 -6 7 -11c0 -3 -1 -10 -4 -18s-5 -14 -4 -18c-1 -4 0 -9 4 -15s5 -10 5 -12s0 -4 -1 -6z" />
    <glyph glyph-name="SARTAR" unicode="&#xe050;" horiz-adv-x="663" 
d="M515 482l8 65c3 3 12 14 24 31c10 14 19 20 28 20c3 0 8 -1 13 -4s9 -4 10 -4h8c2 1 4 1 7 1c5 0 11 -3 17 -9c5 0 11 -4 17 -11s9 -13 9 -18c0 -8 -2 -20 -7 -35c-4 -16 -8 -27 -11 -32l-18 -10c-2 -1 -7 -8 -12 -20c5 0 -3 -1 -26 -3c-25 8 -46 17 -60 29h-7zM647 229
l-16 -2c-25 -18 -41 -26 -49 -26c-2 0 -10 3 -22 9c-5 3 -10 6 -14 8s-7 2 -9 3c-3 2 -6 5 -10 7s-9 6 -14 9c2 23 10 45 22 67c15 27 33 40 53 40c3 0 9 -1 17 -4s14 -4 19 -3c10 -6 20 -20 30 -43v-14s-1 -16 -2 -28c-3 -4 -7 -8 -12 -12zM348 464c-12 -7 -25 -10 -39 -10
c-12 6 -24 13 -38 21s-24 18 -31 32c10 15 17 33 24 53c3 10 18 23 45 37c9 0 24 -4 44 -14s30 -19 30 -28c0 -3 -5 -26 -16 -67c-8 -8 -17 -13 -25 -16zM371 763c21 -3 41 -15 61 -36c27 -29 44 -45 50 -48l-8 -49c-5 -15 -16 -28 -31 -39l-11 8h-2c-6 -1 -12 6 -20 21
c-7 14 -14 21 -20 22c-27 23 -57 35 -89 35c-48 0 -90 -7 -128 -19c-55 -18 -82 -44 -82 -81v-94c0 -36 30 -66 91 -91c48 -20 95 -30 139 -31c9 5 23 11 43 15c21 5 36 10 44 15c10 15 17 25 21 29c9 8 20 12 33 14c3 -8 7 -23 12 -45l8 -9c-2 -5 -3 -12 -3 -19
c0 -8 3 -21 8 -39s9 -32 9 -40c-1 -3 -4 -9 -9 -17c5 -9 8 -15 8 -20c0 -14 -6 -33 -18 -56c-15 -29 -23 -46 -25 -53l8 -9c-10 -3 -24 -17 -42 -42c-24 -31 -60 -51 -108 -61c-31 -7 -55 -13 -74 -18s-33 -10 -41 -15c1 6 0 10 -1 13l-6 4c-14 -3 -21 -5 -22 -5
c-4 0 -11 4 -19 13l-12 -13l-2 20c-18 7 -33 19 -43 37s-15 39 -15 59c0 11 4 27 12 49c9 25 18 38 28 38l11 -6c5 -5 8 -12 7 -18c-2 -18 -3 -23 -3 -16c0 -13 17 -28 52 -45v-4l16 1c7 1 16 -1 28 -5s22 -7 28 -7c4 0 12 2 24 5c14 3 21 4 22 3l9 6l7 -3c11 1 25 13 43 36
c11 14 21 24 29 32s14 15 19 18v110l-18 -12l-5 1c-3 -3 -8 -6 -13 -9s-12 -6 -20 -9c-4 0 -10 -3 -19 -7s-15 -7 -20 -7c-2 0 -5 1 -9 2l-21 -7c-28 0 -60 3 -93 11c-43 10 -67 24 -75 42l3 -3l-14 -3c-11 0 -25 8 -42 22s-25 27 -25 38l6 21l-7 16l-15 -2l-5 5l-4 10v138
c0 14 12 40 36 78c25 39 43 62 56 69h3c8 16 20 27 36 35c3 1 9 4 17 7s20 6 35 11c45 14 74 20 86 20c31 0 51 -3 62 -8l11 4c3 0 10 -4 18 -13z" />
    <glyph glyph-name="PAMELT" unicode="&#xe051;" horiz-adv-x="781" 
d="M298 695c70 -52 141 -109 213 -172l-12 -28l25 13l118 -110l-74 -49l-197 149h-25l10 -124l8 -82l-20 -41l27 -49l-5 -197l-53 -2l-57 -1l-3 404l26 7l-31 10v75c-13 0 -55 -41 -126 -124l-32 10l9 -35h-49c-33 0 -49 16 -49 49c0 16 99 115 297 297z" />
    <glyph glyph-name="HELL" unicode="&#xe052;" horiz-adv-x="1087" 
d="M1086 191c-3 -1 -2 0 -4 -1c-1 0 -3 -1 -4 -1c-1 -1 -2 -1 -3 -1c-4 0 -11 1 -21 2s-19 1 -24 0c-3 2 -7 5 -14 7c-3 0 -10 -1 -21 -2s-19 -2 -24 -2c-9 0 -17 1 -24 3c-3 5 -8 8 -13 8c-20 0 -38 -5 -55 -13l-32 10c-6 -3 -13 -6 -19 -7s-13 -3 -20 -3h-11l-4 10
c1 4 4 9 9 16l1 5c-5 -1 -12 -4 -20 -12c-10 -12 -14 -17 -15 -17l-16 -2l-3 -39l-11 -11c8 -10 13 -25 13 -45c0 -10 -1 -24 -3 -43c-2 -18 -4 -32 -4 -42c-5 -3 -12 -3 -23 -2c-4 0 -7 1 -10 1h-8c-3 0 -5 0 -6 1c-9 1 -17 -2 -25 -9l-9 5c-1 17 -3 34 -4 50s-2 31 -2 47
c0 25 1 49 3 73c5 3 12 11 20 21c-10 3 -15 6 -16 11c1 -4 1 -4 1 -1s1 10 1 22c0 3 -1 9 -2 16s-2 13 -2 16c0 6 2 16 6 28s6 21 6 27l-4 6c-8 -5 -16 -9 -22 -10c2 -1 6 -5 12 -11l-30 -45c-6 -10 -13 -17 -20 -22s-14 -9 -21 -12v-2c0 -20 -14 -43 -43 -70
c-3 0 -9 6 -14 20l-6 -1c-8 0 -15 6 -20 20v9l-4 -1c-5 0 -11 1 -16 4c-28 30 -39 48 -35 53c-3 2 -7 6 -12 14l2 4l-3 7l-8 -1l-11 1c-3 5 -6 9 -11 12v-4s1 -2 1 -3s0 -2 1 -2c0 -5 -1 -12 -1 -20s0 -18 -1 -29c-1 -10 -2 -18 -2 -26v-19c3 -8 5 -17 5 -27
c0 -18 -4 -38 -10 -57c3 -12 7 -22 8 -32s2 -20 2 -30v-14c-10 -12 -20 -19 -31 -19c-4 0 -9 0 -15 1s-12 1 -18 2s-12 1 -17 2s-10 1 -13 1c-1 7 -2 12 -2 14c0 8 1 14 4 20c1 1 4 2 6 3c1 1 3 3 5 4s6 3 9 5l-5 10c-7 1 -11 4 -13 11c-1 2 -2 5 -2 8s-1 6 0 10
c0 3 1 7 1 9s1 4 1 5c0 2 0 4 1 5c0 7 0 17 -1 31s-2 23 -2 30c-10 3 -18 4 -27 3c-6 3 -13 7 -18 9l-7 -10c-5 1 -13 1 -24 0c-8 -1 -14 -1 -18 -1s-7 -1 -8 -1c-8 0 -14 2 -21 6s-12 6 -14 6l-5 3c-5 0 -10 -4 -18 -12c-9 0 -23 -1 -42 -3c-10 -1 -18 -1 -25 -1
s-12 -1 -17 -1c-35 0 -61 2 -75 7l-1 8c0 11 11 22 32 35c7 11 12 19 16 25s7 10 8 11c11 13 23 22 35 27v5c0 3 2 10 5 20l36 50l11 -3l4 6l-1 8c0 7 6 14 18 22c12 10 17 18 16 25c21 32 43 59 66 79h3c7 0 10 -8 10 -22c0 -12 -2 -20 -7 -25l11 -34c0 -22 -8 -39 -25 -52
h-4s-1 1 -2 1h-2h-4c-3 -9 -9 -24 -20 -46c-7 -1 -15 -10 -24 -25c-8 -13 -13 -24 -14 -32c3 -4 10 -7 22 -8c10 0 18 1 26 3c4 -5 6 -10 5 -17c1 1 4 2 8 6s10 9 18 16h9c3 0 9 1 16 2s16 2 26 3l22 -4l5 -5v14c0 15 2 37 6 67c-4 9 -6 18 -6 28c0 12 3 23 10 34
c-8 8 -11 29 -11 65c0 8 1 17 4 26h5c10 0 22 -10 35 -29c25 -16 39 -25 41 -26c16 -12 24 -24 24 -38c0 -11 7 -19 19 -23c3 -9 10 -20 23 -34l-3 -6c2 -3 8 -6 18 -10c5 -8 11 -16 19 -26s18 -20 30 -32c7 5 13 14 21 28c3 1 8 4 16 9l-1 6c0 8 7 16 21 22l8 -1v5
c0 14 13 37 39 70c3 2 12 8 24 19c3 6 6 13 10 19c3 2 14 12 30 32c13 15 24 23 35 23l8 -1c5 -5 7 -9 7 -14c0 -4 -1 -10 -2 -16s-2 -14 -3 -21s-1 -14 -2 -20s-1 -12 -1 -16c0 -7 0 -17 2 -29s3 -22 3 -28c0 -29 -1 -50 -3 -65h-5c1 -2 2 -6 3 -10s1 -10 2 -17
c5 1 11 1 17 1h21h17l-3 -9c5 -3 11 -5 19 -5c3 0 6 1 9 1s8 0 11 1c-5 2 -11 5 -16 8c4 2 10 4 16 5s12 1 18 1h17c5 0 9 1 12 2c14 -3 20 -4 21 -4h3c-1 10 -7 20 -19 31s-19 19 -20 24c-1 4 -2 8 -3 13s-4 7 -8 8l-2 -1c-4 0 -9 2 -16 7c-3 5 -4 11 -4 16
c-9 6 -15 17 -16 35c1 -14 2 -17 2 -11v52c0 5 -1 12 -2 22s-2 16 -2 21c0 13 3 22 8 25c6 0 20 -15 42 -46v-3c0 -5 7 -14 19 -26v-3c0 -5 5 -14 16 -27l5 -19l7 1c9 0 16 -7 22 -21l-1 -9h3c3 1 10 -1 18 -4l39 -51c0 -13 4 -24 9 -34c8 3 14 5 19 5c10 -13 20 -25 30 -38
s19 -25 29 -39z" />
    <glyph glyph-name="LUCK" unicode="&#xe036;" horiz-adv-x="634" 
d="M585 459c-18 -8 -40 -13 -66 -13c-6 0 -15 0 -27 1s-21 2 -26 2c-16 0 -29 -3 -37 -7c1 -24 4 -54 12 -89l12 -3c5 -14 10 -32 18 -52s17 -44 29 -71l-5 -15c-2 -6 -5 -14 -7 -23l2 1l9 5c5 2 8 2 9 0l74 -182l-8 -12c-8 7 -14 11 -21 12c-5 -1 -11 -2 -15 -3
s-9 -3 -13 -4c-18 8 -33 6 -46 -5c-11 6 -20 28 -28 65l3 9c-4 1 -8 3 -11 7l11 14c-8 3 -15 8 -23 13c-31 89 -47 139 -46 151l12 14l-12 8l-13 -1c-4 5 -10 12 -15 24s-11 26 -16 44l-25 76l-20 -1c-7 -7 -10 -15 -10 -23l-10 -6l6 -13c-5 -12 -12 -28 -20 -46
s-15 -41 -24 -66c-4 -12 -11 -21 -20 -29s-14 -13 -15 -16c1 -1 3 -2 4 -2c2 0 4 1 5 2l8 -16c-1 -3 -1 -8 -3 -13s-5 -11 -8 -18l-9 -3l-4 -8c5 -28 -13 -82 -51 -162c-5 1 -12 2 -20 4s-17 3 -27 6c-5 -5 -12 -8 -21 -9s-18 -2 -26 -3c-1 8 0 17 5 27c3 5 5 10 7 14
s3 7 4 9s3 8 5 16s6 18 11 32c12 -5 18 -6 19 -4c-2 7 -3 15 -3 24c0 17 4 36 12 58c3 10 6 19 9 28s7 19 10 29c7 6 12 12 16 19c-1 9 2 23 7 41c3 10 5 18 8 24s5 12 8 17l17 8l-13 7l31 98l-13 7c-11 -1 -22 -3 -33 -3s-22 0 -34 1c-1 3 -2 8 -5 15l-3 -2
c-3 -9 -12 -13 -26 -14c-1 -1 -12 0 -34 1c-3 5 -4 37 -4 98c5 1 37 2 95 2c59 0 92 -1 95 -3c3 -1 8 -6 16 -16c8 -8 12 -15 13 -20l8 -4l-8 28l10 13c5 1 14 3 27 3s28 0 48 -1l24 -17l9 9s7 5 11 8c15 -4 43 -6 83 -6c41 -1 69 1 84 6l10 -3c0 -10 1 -23 2 -38
s3 -34 6 -55z" />
    <glyph glyph-name="FATE" unicode="&#xe037;" horiz-adv-x="663" 
d="M561 229c-2 0 -21 5 -58 15c-5 -3 -10 -7 -14 -10s-9 -6 -14 -7l-33 5h-31l48 -42c5 -4 10 -9 13 -14s6 -11 9 -16l-4 -8l8 -21c5 5 10 8 14 11c16 -20 32 -41 46 -61c1 -8 -11 -21 -35 -39c-20 -15 -37 -26 -53 -32c-5 14 -17 34 -35 57c-9 12 -16 22 -22 31
s-10 17 -13 23c1 5 -2 9 -9 13l-3 2c-2 1 -3 2 -3 5c-6 3 -16 10 -28 22c-1 3 -2 8 -4 13s-3 11 -6 18c-5 -3 -11 -10 -17 -18c-3 -5 -5 -9 -8 -13s-7 -7 -10 -9c-8 1 -14 -2 -21 -7l-6 -23c0 1 0 0 -1 -5s-3 -12 -4 -22c-12 -6 -23 -21 -34 -44c-10 -23 -19 -38 -28 -45
c-10 5 -20 13 -33 24s-28 25 -45 42c5 9 13 19 23 32s20 29 34 46l17 -7c5 13 6 25 3 37c1 3 4 8 9 14c3 3 8 7 12 12s10 11 15 18l-28 4l-16 -6c-10 -3 -20 -4 -28 -1c-1 3 -4 5 -9 5h-1c-9 0 -15 0 -17 -1s-5 -4 -9 -7c-10 2 -30 0 -59 -6l-10 4c-8 27 -12 48 -12 63
c0 9 2 17 5 25c5 -1 19 -1 42 0c16 1 30 0 44 -2l9 -7l17 13c-1 0 4 0 15 -1s28 -2 51 -3c0 3 -1 6 -3 10s-5 8 -8 11s-6 6 -8 9s-4 5 -4 6c-14 6 -21 17 -22 32l-3 3c4 10 4 24 1 42c-12 -10 -21 -16 -26 -19c-16 14 -30 32 -42 51l36 39c16 15 31 25 44 30
c10 -5 18 -7 26 -6l48 -63c5 -10 13 -23 23 -37s21 -31 35 -49c5 11 12 23 20 38s18 32 30 50c10 15 17 27 23 38s11 19 12 27l11 10c23 -10 39 -18 49 -24c15 -10 29 -21 43 -34l-39 -50l-1 1c-7 5 -16 7 -29 6c6 -5 10 -10 12 -13s4 -6 5 -8s2 -5 2 -7v-10l-24 -28
c-3 -3 -6 -7 -9 -10l-8 -10c-8 -10 -11 -18 -11 -26c26 6 52 7 77 4c8 3 14 6 19 5l18 -15c5 9 12 15 20 18c11 -2 23 -1 35 4l11 -4c10 -15 14 -44 11 -87c-10 -10 -26 -14 -47 -11z" />
    <glyph glyph-name="LIGHT" unicode="&#xe038;" horiz-adv-x="776" 
d="M122 568l26 12l5 21l31 13l20 28c33 16 77 32 132 47l6 -19l18 12c14 10 33 14 54 14c47 0 79 -19 96 -59c6 0 27 -4 65 -13l11 -27l10 -2c10 5 19 8 27 8c38 0 66 -46 86 -138c15 -72 20 -132 16 -180c-14 -1 -24 -2 -30 -2s-9 0 -8 0c3 -8 11 -16 25 -22
c3 -5 4 -12 4 -21c0 -23 -10 -48 -29 -76c-18 -28 -36 -46 -54 -54c-9 -18 -19 -32 -30 -43c-8 -3 -16 -7 -27 -10s-23 -7 -37 -11c-1 2 -2 3 -3 3c0 -4 0 -7 -1 -9c-1 -5 -5 -7 -8 -5c-28 -20 -57 -31 -88 -31c-10 0 -21 2 -33 5c-16 -5 -30 -7 -40 -7c-15 0 -26 4 -33 13
c-37 -1 -72 7 -105 23s-58 37 -76 66l-34 28l-7 11l-19 -6c-27 72 -41 142 -41 210c0 55 8 99 23 134zM609 217c16 45 24 86 24 122c0 61 -23 122 -69 185h-23l-18 -1l-11 19c-38 39 -70 58 -95 58c-15 0 -30 -5 -45 -17c-5 3 -12 5 -18 5c-9 0 -21 -5 -36 -13
c-30 3 -54 -10 -73 -40c3 -3 5 -7 4 -8c-1 -5 -2 -8 -2 -9l-17 4l-43 -23c-5 -9 -10 -21 -15 -35c-5 -3 -10 -9 -14 -15s-9 -14 -12 -22s-6 -16 -8 -25s-3 -17 -3 -25c0 -13 2 -23 7 -28c0 -12 -5 -20 -17 -24c4 -29 18 -68 41 -118c29 -59 56 -89 82 -89c10 0 17 3 24 10
l9 -1l11 -16c14 -1 25 -1 33 -1s13 1 16 2c14 -20 33 -30 60 -30c21 0 40 6 55 19v13l18 -14c18 9 34 18 48 27s27 18 39 27c1 4 3 9 7 15l12 18s10 12 15 17s10 10 14 13z" />
    <glyph glyph-name="COLD" unicode="&#xe039;" horiz-adv-x="806" 
d="M472 315c1 7 2 13 2 16c0 15 -11 41 -33 77c-10 10 -23 14 -41 14c-5 0 -13 -1 -24 -2s-19 -1 -24 -1c-24 -20 -33 -41 -30 -59c-3 -3 -5 -7 -5 -15s-1 -12 -4 -15c-1 -6 0 -15 3 -26c7 -5 14 -11 21 -16s13 -11 20 -16c16 -11 33 -15 49 -14c1 1 6 1 14 0
c17 9 34 28 52 57zM598 626l22 -1c3 -3 5 -9 5 -14s-1 -11 -4 -17c5 -2 13 -5 24 -7s19 -4 23 -6c11 -6 33 -47 67 -123l-20 -25h17c10 -12 18 -33 21 -64c3 -29 -1 -51 -9 -67c-2 -5 -6 -10 -14 -16s-14 -9 -19 -8c3 -10 4 -22 1 -34c-1 -8 -3 -16 -4 -21s-1 -9 0 -12
c-8 -4 -16 -9 -24 -14l-1 -11c5 -8 8 -14 8 -22c0 -5 -2 -11 -5 -18c-25 -48 -66 -84 -124 -109c-48 -21 -103 -34 -164 -37c-3 7 -4 16 -2 28c1 3 1 5 1 7v7c0 4 -1 9 -2 14c-16 -10 -25 -19 -28 -31c-8 -5 -14 -9 -19 -9s-9 1 -12 4c-7 -4 -24 -1 -53 7
c-24 7 -43 14 -55 20s-18 15 -18 27c-12 3 -22 7 -31 12l-16 10c-1 6 -7 16 -17 30c-8 11 -13 21 -14 31c14 12 22 25 24 39c-14 0 -27 -6 -39 -18c-7 4 -14 10 -21 18s-13 16 -18 28c-12 23 -16 43 -13 57c-9 20 -14 36 -14 50c0 10 2 17 7 22c-7 10 -9 28 -8 55
c3 44 23 79 60 104c26 18 42 31 49 39l-7 35l9 9c-7 8 -9 14 -8 17c5 9 44 28 120 56c57 20 104 30 138 30c16 0 29 -2 39 -6c3 -5 7 -10 11 -15s8 -9 13 -14c-1 -6 -2 -13 -3 -18s-2 -11 -1 -16l7 10c3 7 7 22 11 45c11 -3 25 -8 40 -14s34 -12 55 -20z" />
    <glyph glyph-name="LAW" unicode="&#xe03a;" horiz-adv-x="711" 
d="M710 40c3 -10 2 -22 -3 -37c-52 -9 -98 -8 -137 4l-12 -11c-29 -4 -53 3 -69 23l-48 -23c-64 1 -132 2 -204 3s-150 3 -231 4l-4 9c3 3 8 12 14 25s15 31 26 53c17 33 33 58 49 72c2 -1 6 -1 11 -1s9 0 11 1c-5 28 16 85 66 171c50 87 88 136 114 150l-4 17
c5 14 16 37 33 69c20 36 34 56 42 59c14 -9 30 -31 49 -66c19 -33 28 -60 28 -80c0 -5 0 -8 -1 -10c14 -6 39 -39 74 -98c41 -71 65 -110 71 -117l5 -28c17 -20 37 -50 61 -92c29 -53 49 -85 59 -97zM548 96v7c-8 8 -16 21 -23 41c-9 22 -16 36 -22 42c-5 14 -4 27 4 40
c-5 5 -14 10 -25 12c-3 5 -10 15 -19 30s-21 36 -37 62c-23 40 -45 69 -65 88c-3 -7 -10 -18 -20 -34s-24 -35 -41 -59c-26 -38 -43 -72 -52 -100c-3 -8 -10 -15 -20 -22c-15 -10 -23 -16 -26 -19c3 -16 -11 -45 -42 -86c5 -5 18 -8 36 -8h41l15 -14l4 4l8 -7
c-1 8 -1 14 0 19c23 3 79 3 166 -1l22 -21l10 3c6 17 19 25 39 25h34l12 -1l4 -1h-3z" />
    <glyph glyph-name="UNDEATH" unicode="&#xe03b;" 
d="M546 76c-4 -8 -9 -9 -14 -4c-3 2 -6 5 -10 9s-8 9 -13 14c-16 4 -28 13 -34 27c-2 2 -5 3 -9 5s-8 4 -13 6s-9 4 -13 6s-7 5 -8 8l-26 20c-11 8 -16 18 -13 29c-2 0 -3 -3 -5 -7s-4 -6 -6 -6c-5 5 -13 10 -22 16l-30 20c-5 -1 -6 -4 -4 -9c-1 -3 -1 -6 0 -11s0 -5 1 -8
c0 -2 1 -4 1 -5c0 -5 -4 -9 -9 -11c-1 -2 0 -5 2 -8s3 -6 2 -9s-3 -5 -3 -6s-1 -4 -2 -5s-1 -3 -1 -4c8 -2 13 -8 12 -19c0 -18 0 -28 -1 -27c1 -5 1 -9 1 -14v-14c0 -9 -5 -16 -15 -19c-7 -1 -12 -2 -16 -2c-7 0 -29 6 -66 17c-4 5 -6 13 -5 23c1 8 1 13 1 17v9
c1 8 5 11 12 10c1 0 7 -4 21 -12c-1 1 -3 3 -6 7s-7 10 -12 19c-2 10 -9 23 -19 39c1 29 1 46 -1 49c-1 -3 -4 -4 -8 -4s-8 -1 -10 -3c1 -1 1 -3 1 -6c0 -9 -8 -17 -22 -23c-3 0 -6 0 -8 1c1 -4 -1 -11 -4 -21l-51 -40c-13 0 -24 -3 -34 -8c5 -11 6 -18 5 -19
c-8 -5 -15 -10 -25 -16s-20 -15 -32 -24c-4 -1 -8 -6 -11 -16s-9 -13 -17 -10c-5 5 -7 10 -7 17c0 2 1 5 2 9s1 8 2 13s2 10 2 14s0 8 -1 11c1 0 4 5 7 15c-3 47 -3 75 -1 84c5 3 7 7 7 14c0 2 0 6 -2 13s-3 13 -2 17c-1 5 -2 10 -3 14s-3 8 -4 11c-1 4 1 10 4 17s5 12 5 15
s-1 7 -5 11s-4 12 -1 22c0 1 2 3 5 6s4 5 3 8c2 2 4 4 4 6s-3 6 -6 10s-5 8 -5 9c-1 18 -3 34 -6 47c1 12 1 27 1 45s-2 39 -3 63c-1 10 0 21 5 34c10 2 18 0 24 -6c1 -4 3 -8 8 -12s9 -9 10 -13c24 -16 37 -25 39 -27c7 -5 12 -11 17 -17s9 -12 12 -19c5 0 12 -2 24 -5
c1 -5 9 -11 25 -17c3 -3 8 -7 13 -11s11 -10 19 -16c0 -5 3 -8 8 -9c8 -1 12 -2 13 -3c1 4 2 8 2 12c0 3 -1 9 -2 16s-2 13 -2 16c0 8 3 13 9 17c1 4 7 9 16 17c1 3 -1 4 -6 4c-8 3 -14 10 -16 19l-6 23c2 5 3 13 3 23v4c0 14 3 24 10 29c1 -1 5 -1 9 -2s9 -1 15 -2
c9 -1 16 -5 21 -10c7 -1 15 2 23 7s15 8 21 8l5 -22c0 -12 0 -26 1 -43s3 -36 4 -59l-2 -22c-1 -10 -6 -15 -11 -18c0 -1 2 -5 6 -9s6 -9 6 -12c2 0 5 3 8 6s6 5 9 5l6 -2c1 -1 2 0 5 3c1 3 1 7 -1 11c-1 4 -1 7 1 10s5 5 9 8l12 9s8 6 11 9s6 6 7 9c4 1 13 6 25 16
c8 7 17 10 28 9c1 3 3 5 4 8s3 7 4 12c1 3 2 7 5 9l9 6c5 3 5 4 10 7c3 2 4 4 5 7c9 9 23 18 43 30c4 -1 8 -3 9 -8c5 -21 3 -45 -5 -73c5 -11 8 -23 8 -37c1 -10 1 -18 1 -24s1 -11 2 -14c-2 -5 -3 -12 -4 -20s-1 -15 -1 -24v-46c6 -26 8 -45 5 -55c-1 -3 -2 -7 -4 -11
s-4 -10 -7 -17c11 -10 15 -29 10 -56c2 -25 1 -42 -3 -50c8 -5 11 -12 11 -22c0 -3 -1 -8 -2 -15s-2 -12 -2 -15c0 -4 1 -8 2 -12zM474 326c-7 6 -10 15 -10 28v33c1 4 -2 9 -7 16c-18 -13 -35 -28 -51 -46c-20 -10 -38 -25 -53 -45c3 -5 11 -11 23 -19c3 -5 9 -9 19 -14
s16 -11 19 -16c1 -7 5 -14 11 -22c3 2 5 3 8 3c5 0 11 -4 18 -11s12 -10 17 -11c2 5 2 11 1 15c8 31 9 55 1 71c1 7 2 12 3 14s1 3 1 4zM207 309l-55 43c-1 10 -7 17 -17 21s-18 8 -27 12c-2 0 -5 2 -8 5s-6 5 -9 5c-3 -2 -5 -5 -6 -9v-12c1 -3 1 -6 1 -8v-4
c1 -8 1 -17 2 -28s2 -24 3 -40c-3 -24 -4 -38 -2 -43c1 -4 2 -6 2 -7c0 -2 -1 -7 -3 -12s-3 -10 -2 -13c10 1 19 5 29 15c6 7 11 12 15 16s7 7 9 8c1 1 2 2 5 2s6 0 9 1s4 2 6 3s3 3 3 5c3 6 11 14 25 24c3 0 6 2 9 7s5 7 7 7s3 0 4 -1v3z" />
    <glyph glyph-name="BARNTAR" unicode="&#xe03c;" horiz-adv-x="789" 
d="M711 586c0 -11 -4 -27 -11 -47c-5 -2 -10 -3 -13 -3s-9 1 -15 3s-12 3 -15 3c-12 0 -22 -4 -31 -11c-4 1 -10 1 -18 -1s-14 -3 -17 -3c-7 0 -15 1 -26 2s-23 3 -37 6c-29 5 -49 8 -61 8c-4 0 -11 -1 -20 -3s-16 -2 -21 -1l-9 -21l14 -22c-1 -4 -2 -11 -2 -19
c0 -5 0 -12 1 -20s2 -18 3 -29s3 -20 4 -28s1 -15 1 -20l-11 -21c2 -5 3 -11 3 -18c0 -11 -2 -23 -6 -36l9 -27c0 -6 -1 -15 -5 -27s-6 -21 -6 -27c0 -4 0 -9 1 -15s1 -12 2 -19s3 -12 4 -18s1 -11 1 -15c4 5 10 11 16 19s14 16 24 26l19 -1c23 42 47 73 73 95l5 -3
c4 -16 19 -23 45 -22l32 -35l-5 -16l-46 -40c-19 -16 -36 -27 -50 -34l-14 2l-10 -22h-20v-18c-23 -32 -62 -68 -115 -107c-34 7 -63 31 -86 71l-11 -1c-8 0 -16 1 -25 5s-16 10 -23 16s-13 13 -17 21s-7 16 -7 24c-3 3 -8 6 -13 10s-12 10 -19 15h-17l-48 40
c-18 14 -31 31 -36 50c16 15 30 25 43 30l18 -12l12 15c10 -10 25 -20 48 -32l15 -28l9 2c40 -22 66 -44 77 -68l19 -4c3 6 4 14 4 25c0 4 -1 10 -2 16c-2 10 -1 10 -3 20s-1 9 -3 19c-1 6 -2 12 -2 16c0 6 0 14 1 23s3 19 4 31s2 22 3 31s1 17 1 23l12 10l34 -18l15 22
l-10 8l-31 6l-17 26l2 10l5 3c-6 9 -9 21 -9 36c0 5 0 14 1 25s2 20 2 25l-7 20l-27 -4l-31 3l-2 9l-18 -5c-4 0 -19 3 -46 11c-23 -9 -43 -14 -60 -14h-18c-7 0 -15 1 -25 2c-18 1 -32 1 -42 0l-6 13c5 16 7 29 7 37l-9 29l1 7c7 2 18 4 34 6l15 -14c21 14 34 21 38 21h141
c-7 0 7 -3 42 -9l7 -10c10 7 21 12 33 15l8 -3l25 4l11 -6l-6 -18l45 23l11 -1c6 0 15 2 27 5s21 5 27 5c7 0 14 -1 24 -2s21 -2 34 -3s24 -2 34 -3s18 -1 25 -1l2 -16l40 17c10 0 21 -1 37 -3l-1 -18c0 -2 3 -5 6 -11s5 -10 5 -12z" />
    <glyph glyph-name="ODAYLA" unicode="&#xe03d;" horiz-adv-x="507" 
d="M450 524c-6 -3 -13 -7 -19 -12s-13 -12 -21 -20c-8 -10 -16 -18 -22 -23s-12 -9 -16 -12c-9 0 -18 -1 -26 -4c3 -3 4 -8 4 -12c0 -8 -4 -15 -14 -25l-22 -21l-5 1c-1 -1 -3 -2 -7 -5s-9 -8 -16 -15c-16 -3 -29 -4 -37 -1c3 -5 4 -11 4 -16c0 -13 -16 -31 -48 -55
c5 -3 11 -10 21 -21c10 -12 18 -19 25 -21c4 -7 7 -13 9 -20c-3 -3 -5 -8 -6 -12c3 -3 6 -6 9 -10s6 -8 11 -13c3 1 10 1 21 1c13 -7 39 -32 77 -76c1 -3 2 -8 5 -15c7 -2 17 -9 30 -21l28 -26l1 -7c-3 -6 -11 -15 -24 -27c-13 -11 -21 -22 -23 -32c-10 -3 -17 -4 -20 -3
l-19 9c-11 23 -16 33 -16 32c0 3 4 13 13 29c-10 -1 -22 -5 -34 -10c-18 8 -27 18 -30 32c-5 3 -10 10 -13 20c-3 11 -6 17 -11 18c-12 -1 -26 7 -43 23s-26 30 -26 40c6 3 13 7 20 12l-2 2c-6 -1 -23 1 -52 7c-55 42 -80 70 -74 85l32 30c14 12 24 20 34 23c1 5 0 10 -2 15
c-14 12 -21 21 -21 27c0 5 1 11 4 16c0 4 -1 8 -2 12c-4 1 -9 1 -14 -1c-13 -5 -14 -5 -14 -5c-6 3 -22 20 -48 49c3 3 8 8 14 12s12 10 20 15l7 -4c1 7 3 14 5 21s7 12 13 13c9 -5 23 -20 43 -45c16 -20 32 -34 47 -40l9 -12l6 -1c3 5 13 15 31 31l-31 28
c-7 6 -11 12 -14 18s-4 12 -5 17c-10 -1 -27 11 -49 36l-1 3c2 3 7 6 12 9c1 4 6 8 15 12s13 8 15 13c-1 10 2 18 8 25c7 -9 17 -18 31 -30c2 -2 5 -5 7 -8s5 -7 8 -12l-5 -6l-3 -1c0 -4 6 -9 18 -15c3 6 7 10 11 11c4 -4 10 -9 17 -17s14 -17 24 -29c14 3 22 8 24 15
c-5 2 -8 6 -9 11l16 16c-12 9 -20 20 -23 34c-6 -1 -16 4 -30 16c-13 12 -22 19 -27 20l-12 27c12 21 20 31 28 30c5 12 12 20 18 23l8 -1l46 -47c0 -5 2 -9 7 -13c15 3 26 -8 32 -32l-2 -8l2 -8c3 3 7 5 10 5c6 0 14 -4 24 -12c3 -3 7 -6 10 -9c5 -4 5 -5 10 -9
c3 -3 6 -7 9 -12s7 -10 11 -17c-1 -5 -3 -11 -6 -15z" />
    <glyph glyph-name="YINKIN" unicode="&#xe03e;" horiz-adv-x="1010" 
d="M511 733c16 -3 29 -1 41 8c8 -3 15 -4 23 -6s17 -3 27 -4l4 -54c-3 -10 -5 -23 -5 -37l-1 -37l3 -59l-5 -23l83 -6c1 14 0 30 -1 47s-1 37 -1 58v14c1 3 -1 6 -5 9l1 32l5 13v37l9 9c24 3 51 2 82 -6c-2 -12 -1 -26 4 -41l-5 -32v-14l-1 -50l4 -36l-1 -14v-14l5 -9
c57 -1 91 -12 100 -30c-15 -18 -26 -39 -33 -63l-28 1l-32 -4c-24 9 -48 8 -73 -3c-14 5 -29 6 -45 1c-13 -1 -32 1 -56 5l-50 -3h-13h-19c-3 -9 -1 -20 4 -32c-7 -22 -7 -48 -2 -78c-1 -5 -1 -9 0 -13l-5 -14l5 -14l-1 -22v-24l-5 -17v-19l4 -18l-1 -18l-9 -14v-27
c6 -8 9 -17 8 -28c1 -16 -1 -36 -6 -59v-14l-27 -4c-11 1 -24 3 -39 3s-30 -1 -48 -2c2 12 0 26 -4 42c10 25 9 51 -3 78l11 58l1 65l-9 18c1 10 3 22 4 35s0 26 -3 42l-4 24l10 45c-40 7 -88 5 -142 -6c-33 8 -71 7 -113 -2c-11 3 -23 4 -36 6s-26 3 -42 4
c-8 3 -10 32 -8 85c-4 15 24 19 83 11c4 28 5 55 2 81l1 63c0 9 0 19 1 30s2 22 5 35l5 17c27 5 56 0 86 -14c-7 -27 -9 -58 -6 -96l-1 -37v-14l-1 -18l5 -9l-1 -32c25 -5 52 -6 82 -2c1 9 2 19 2 30s1 25 0 39c3 11 4 22 5 35s1 27 1 43l1 68c20 3 48 4 82 3
c11 -43 10 -91 -2 -146l7 -41v-24c3 -4 8 -7 13 -9c22 4 45 4 69 -1l-4 28c3 8 5 15 6 24s1 19 0 30c2 22 1 38 -4 50z" />
    <glyph glyph-name="MALKION" unicode="&#xe03f;" horiz-adv-x="821" 
d="M450 173l-48 78l-40 -79zM388 595c7 7 18 12 34 15c34 -42 55 -82 63 -120l17 -5c13 -17 19 -32 19 -44c0 -8 -2 -16 -5 -26c5 -3 12 -8 19 -13s15 -10 25 -18c31 -56 65 -116 100 -179s72 -130 111 -201l-15 2c-7 1 -15 2 -25 1s-21 -2 -33 -3c-29 -2 -48 -3 -59 -3
c-24 0 -43 2 -58 7c1 -2 2 -3 2 -4s1 0 0 1c-1 0 -1 0 -2 1c-32 -2 -94 -3 -185 -3c-55 -1 -97 0 -127 0s-49 0 -57 -1l-12 -1c-43 2 -93 2 -149 0c2 20 15 48 38 84c24 38 43 57 59 60c-2 15 15 53 49 113c20 35 35 63 46 83s18 32 19 37l23 18c3 12 9 27 17 43
s19 36 31 57c15 25 27 46 36 63s16 28 19 36zM608 139h-15c-8 9 -11 15 -11 16s0 1 1 2l-14 14c-1 5 -4 10 -8 16s-6 11 -6 14s1 7 3 10c-1 6 -5 12 -11 18c-12 16 -34 55 -66 116c-26 51 -50 87 -74 109c-3 -5 -26 -44 -70 -116c-15 -24 -27 -46 -37 -66s-19 -39 -24 -56
c-3 -10 -11 -19 -23 -27c-16 -10 -27 -16 -30 -20c3 -18 -14 -51 -49 -99c5 -7 18 -11 41 -11h47c3 -1 5 -2 6 -2c3 0 8 3 13 8l5 -18l9 -8c-2 10 -2 18 0 23c13 1 35 4 67 6s73 -1 124 -7l25 -3l12 -19c7 20 22 31 45 31l50 -1h25l-37 54zM538 124c0 -1 0 -1 -1 -2
s-1 -2 -2 -2s-2 -1 -3 -2c-24 0 -36 0 -38 -1c-5 -2 -9 -2 -9 0c-15 4 -45 5 -90 3c-20 -1 -37 -2 -52 -3s-29 -3 -40 -4c-4 3 -7 4 -10 5l-4 -4l-4 4l-4 -4h-2l68 132l43 89l24 14l-3 -4c21 -35 42 -71 63 -108s42 -74 64 -113z" />
    <glyph glyph-name="DRAGONEWT" unicode="&#xe060;" horiz-adv-x="800" 
d="M750 313c0 -8 -5 -11 -13 -11c-11 -1 -17 -3 -18 -5c-3 3 -8 4 -16 4c-3 0 -7 -1 -13 -2s-10 -2 -13 -2c-10 0 -17 5 -20 15c-7 -13 -20 -18 -40 -16c-25 3 -40 3 -46 0c3 -3 9 -13 19 -30c10 -18 14 -31 13 -39c9 -8 18 -21 28 -40c10 -22 18 -36 24 -43
c-2 -29 16 -57 52 -86c11 -19 16 -32 16 -38c0 -4 -1 -7 -3 -10c-5 -1 -12 -1 -21 -3s-18 -5 -30 -8c-22 1 -35 2 -40 3c-16 3 -28 8 -36 15c-5 -12 -15 -17 -29 -17c-3 0 -5 1 -7 1s-6 0 -9 1c-1 -1 -3 -1 -6 -1c1 0 0 0 -1 0s-4 -1 -7 -2s-7 1 -10 4c-8 8 -12 11 -13 11
c-4 0 -7 -1 -10 -3c-5 -5 -16 -8 -32 -8c-3 0 -8 2 -13 5c-1 5 -4 7 -9 7c-3 0 -7 -2 -13 -6c-2 -4 -5 -5 -10 -3l-11 2c-3 3 -8 4 -14 4c-4 0 -10 -1 -19 -4s-15 -4 -19 -4c-2 0 -5 1 -9 2c-49 -2 -94 -3 -135 -3c-31 0 -59 1 -86 2s-51 2 -73 3c-3 3 -4 6 -4 11
s11 26 34 61c9 14 17 27 24 40s14 26 19 39c8 -1 17 1 29 6c-3 6 -4 13 -4 23c0 9 2 19 5 29s9 21 18 33l38 49c-12 -1 -30 1 -53 6c-8 -5 -17 -8 -28 -8c-6 0 -15 1 -26 3s-20 3 -25 3c-12 0 -21 -3 -28 -8c-5 5 -7 11 -7 19c0 1 1 4 2 9s2 11 3 21c3 11 2 20 -2 28l1 18
c38 1 80 -4 127 -16c5 12 15 18 29 18c5 0 15 -1 31 -4c17 -1 26 -2 27 -1c5 15 13 27 23 36s15 19 14 30c1 4 6 8 14 13c10 5 15 9 15 10c0 3 -2 7 -6 11c1 8 7 21 21 41c13 19 20 33 19 43c1 5 4 10 8 16s10 12 17 20c12 -2 21 -9 27 -23l14 -33c-1 -5 2 -14 10 -24
c9 -10 14 -17 13 -22c7 -4 10 -10 10 -16c0 -3 -1 -7 -2 -13s-2 -11 -2 -14c0 -8 6 -11 19 -10c2 -2 12 -22 28 -60c4 -3 17 -5 40 -6s37 -5 42 -11l31 9c7 0 12 -3 16 -8c10 9 22 13 36 13c5 0 11 0 20 -1s16 -2 20 -2c10 0 17 1 23 4c6 -4 10 -10 10 -19
c0 -5 -3 -13 -6 -23c-1 -1 -2 -4 -2 -8c0 -3 2 -9 5 -18c3 -3 6 -6 5 -9zM423 395c-5 3 -10 12 -15 24s-10 20 -15 23c-8 -10 -13 -26 -18 -49c1 -3 3 -5 5 -8c3 -5 7 -6 10 -5c1 2 3 4 6 5s7 2 11 3s7 2 10 3s5 2 6 4zM591 91c-23 42 -45 73 -63 91c-3 9 -4 17 -4 23
c0 3 1 6 2 7c5 1 9 8 9 20c-5 -2 -10 -3 -12 -3c-10 0 -17 9 -24 25c-6 10 -13 19 -21 24c1 10 -1 15 -6 17c-1 1 -6 0 -18 -1s-25 4 -39 18c-7 7 -15 11 -23 10l10 -15c-4 -8 -11 -12 -21 -12c-4 0 -11 0 -19 2s-14 3 -18 3s-7 0 -9 -1c-18 -18 -36 -47 -55 -87
c-2 -5 -10 -10 -22 -15c-13 -5 -19 -11 -20 -16c1 -4 2 -8 2 -11c0 -8 -7 -20 -20 -37c-12 -16 -19 -28 -20 -36c8 -1 16 -1 26 -2s20 -2 32 -3c6 -1 12 -3 17 -6c3 -11 8 -16 14 -16c1 0 6 4 18 12s21 11 26 9c5 -1 9 -2 12 -2c2 0 5 0 10 1l15 3s10 1 15 2s9 1 12 1
c8 -3 20 -5 36 -6c18 0 31 -2 38 -7c3 -8 7 -11 12 -11c3 0 9 0 14 2s10 3 13 3c5 0 10 -3 13 -9c5 10 16 16 30 18z" />
    <glyph glyph-name="DRAGON" unicode="&#xe061;" horiz-adv-x="777" 
d="M727 341c-4 -12 -10 -22 -20 -31c-13 -11 -28 -24 -44 -40s-34 -34 -54 -56c-3 9 -6 13 -10 13c-3 0 -7 -3 -11 -9s-6 -10 -6 -12c0 -6 8 -16 25 -28c5 -3 9 -7 13 -11c6 -6 6 -5 11 -10c1 -3 3 -6 5 -8s4 -5 6 -8c35 -35 53 -58 53 -70c0 -3 -3 -7 -9 -10s-10 -6 -11 -9
c-8 -14 -16 -21 -26 -21c-5 0 -8 1 -10 3l-46 52c-12 9 -30 27 -57 54l-30 -36c-9 -8 -19 -17 -32 -29s-28 -26 -45 -42c-12 -16 -22 -26 -28 -31c-1 -1 -6 -2 -16 -2h-14c-7 5 -15 12 -24 20s-19 17 -30 28c-27 27 -39 44 -38 53c-5 -1 -13 5 -25 17l-30 29
c-10 -10 -21 -23 -34 -38s-28 -34 -45 -55c-1 -3 -9 -9 -23 -21c-1 -1 -3 0 -6 3s-5 5 -6 5c-10 0 -17 3 -20 10l-14 19c-5 7 -6 11 -5 14c3 5 8 12 16 21s17 19 29 31c6 7 13 16 22 26s20 22 34 36c-8 10 -12 16 -12 19s-3 5 -9 6c-7 5 -15 12 -25 22s-21 22 -33 38
c-24 29 -38 44 -42 47v15l34 44c9 10 22 23 39 40s38 38 64 63l-65 65c-22 14 -39 32 -51 54c6 4 9 8 9 11c0 8 4 14 11 22s14 11 21 11c4 0 8 -1 13 -4l113 -112l22 20l11 11s9 8 13 13c29 37 59 69 92 96c5 5 12 7 23 7c1 0 24 -22 66 -66c0 -10 1 -17 4 -22c3 -1 5 0 8 3
l35 -32c9 -3 15 -9 18 -17l106 99c1 0 4 1 7 2s4 2 5 2c6 0 13 -3 21 -11s12 -15 12 -21c0 -15 -6 -32 -18 -49c-7 -10 -15 -15 -24 -16l-58 -60c3 -5 8 -10 16 -13c2 -1 3 -4 3 -12s1 -13 4 -15c5 1 8 3 9 5l31 -28c5 -5 14 -15 28 -30s31 -37 54 -64zM554 410
c-4 -1 -5 -2 -4 -2c-2 3 -3 8 -3 16c-6 6 -12 9 -17 9h-4c-1 -1 -1 -1 -2 -1h-1l-2 1l-94 -91c12 -8 27 -21 44 -39l60 -63c15 14 31 28 47 44l51 51zM487 485l-93 89l-20 -15c-4 -3 -10 -8 -16 -15s-13 -17 -22 -30c-1 0 -3 2 -6 5s-5 4 -7 4c-3 -5 -7 -10 -11 -16
s-9 -14 -16 -22l96 -97zM279 413c-8 9 -18 18 -31 30l-5 -14c-2 -7 -7 -11 -14 -14c-1 -3 -4 -3 -7 -2c-1 -1 -9 -11 -25 -27c-2 -2 -6 -5 -9 -8s-8 -6 -13 -9c-7 -5 -10 -9 -10 -10c-2 -4 -6 -10 -14 -18l73 -80c3 1 5 3 8 6c0 -5 3 -12 8 -21c11 9 22 20 35 33
c3 7 12 17 26 31l24 24c6 6 12 12 17 15zM479 200l-99 100l-96 -100l41 -31c-3 -9 -4 -12 -4 -9c0 -8 6 -18 20 -30l35 -31l43 40z" />
    <glyph glyph-name="uniE063" unicode="&#xe063;" horiz-adv-x="1024" 
 />
    <glyph glyph-name="HORSE" unicode="&#xe070;" horiz-adv-x="1129" 
d="M65 490c35 41 90 92 169 152l48 -9c23 -46 60 -90 113 -132l38 -57l123 -19c18 -5 38 -9 60 -12s46 -5 72 -7c20 -19 46 -32 76 -37c37 -46 87 -85 151 -114l20 -67c10 -13 20 -28 31 -45s22 -36 34 -58l-9 -76h-104c-12 27 -35 53 -66 76c-45 143 -149 218 -312 226
c-141 -8 -208 -89 -199 -245c-14 -16 -23 -35 -28 -57h-66h-76c22 212 77 348 164 406l-62 92c-25 -14 -50 -27 -76 -41s-53 -27 -82 -41z" />
  </font>
</defs>
</svg>
